<svg xmlns="http://www.w3.org/2000/svg" width="67" height="59" viewBox="0 0 67 59">
  <g fill-rule="evenodd">
    <path d="M4.963 8.663H2.48v41l29.78 6.04V52.23L4.962 46.69V8.662zm0-2.517H0v45.58l33.498 6.795 33.498-6.794V6.146h-4.963V.052L33.498 5.84 4.963.052v6.094zm57.07 2.517h2.48v41l-29.772 6.04v-3.474l27.293-5.538V8.662zM59.55 44.63L34.74 49.66V8.155l24.81-5.033V44.63zm-52.106 0l24.81 5.032V8.155L7.445 3.122V44.63z"/>
    <path d="M12.13 12.567c.15-.76.885-1.26 1.648-1.11L26.25 13.88c.763.15 1.26.88 1.112 1.648-.148.76-.884 1.26-1.647 1.11l-12.473-2.424c-.762-.148-1.26-.88-1.11-1.647zm0 7.727c.15-.762.885-1.26 1.648-1.11l12.473 2.423c.763.148 1.26.88 1.112 1.647-.148.762-.884 1.26-1.647 1.11L13.242 21.94c-.762-.148-1.26-.88-1.11-1.646zm0 7.418c.15-.76.885-1.26 1.648-1.11l12.473 2.424c.763.148 1.26.88 1.112 1.647-.148.76-.884 1.26-1.647 1.11L13.242 29.36c-.762-.15-1.26-.88-1.11-1.648zm0 7.726c.15-.76.885-1.26 1.648-1.11L26.25 36.75c.763.148 1.26.88 1.112 1.647-.148.76-.884 1.258-1.647 1.11l-12.473-2.425c-.762-.148-1.26-.88-1.11-1.647zm27.506-19.91c.148.76.884 1.26 1.647 1.11l12.474-2.424c.76-.148 1.26-.88 1.11-1.647-.148-.76-.884-1.26-1.646-1.11L40.748 13.88c-.76.15-1.26.88-1.11 1.648zm0 7.726c.148.762.884 1.26 1.647 1.11l12.474-2.424c.76-.148 1.26-.88 1.11-1.646-.148-.762-.884-1.26-1.646-1.11l-12.473 2.423c-.76.148-1.26.88-1.11 1.647zm0 7.42c.148.76.884 1.258 1.647 1.11l12.474-2.425c.76-.15 1.26-.88 1.11-1.648-.148-.76-.884-1.26-1.646-1.11l-12.473 2.424c-.76.148-1.26.88-1.11 1.647zm0 7.725c.148.76.884 1.258 1.647 1.11l12.474-2.425c.76-.148 1.26-.88 1.11-1.647-.148-.76-.884-1.26-1.646-1.11L40.748 36.75c-.76.148-1.26.88-1.11 1.647z"/>
  </g>
</svg>