<?xml version="1.0" encoding="UTF-8" standalone="no"?>
<svg width="99px" height="91px" viewBox="0 0 99 91" version="1.1" xmlns="http://www.w3.org/2000/svg" xmlns:xlink="http://www.w3.org/1999/xlink">
    <!-- Generator: Sketch 3.7.2 (28276) - http://www.bohemiancoding.com/sketch -->
    <title>Shares</title>
    <desc>Created with Sketch.</desc>
    <defs></defs>
    <g id="Page-1" stroke="none" stroke-width="1" fill="none" fill-rule="evenodd">
        <g id="Shares" transform="translate(-1.000000, -18.000000)" stroke-width="3.2491" stroke="#827BAB">
            <g id="Share" transform="translate(3.000000, 20.000000)">
                <g id="Group">
                    <ellipse id="Oval" cx="72.3" cy="48.8" rx="14.7" ry="14.5"></ellipse>
                    <path d="M72.3,63.4 C68.5,63.4 65.1,62 62.5,59.7 L62.5,84.4 L72.3,74.7 L82.1,84.4 L82.1,59.7 C79.5,62 76.1,63.4 72.3,63.4 L72.3,63.4 Z" id="Shape"></path>
                    <path d="M88.7,32.7 L88.7,31.1" id="Shape"></path>
                    <path d="M88.7,21.6 L88.7,13.2" id="Shape" stroke-dasharray="3.79,9.475899999999999"></path>
                    <polyline id="Shape" points="88.7 8.5 88.7 6.8 87 6.8"></polyline>
                    <path d="M78.7,6.8 L12.6,6.8" id="Shape" stroke-dasharray="3.3189,8.2949"></path>
                    <polyline id="Shape" points="8.4 6.8 6.8 6.8 6.8 8.5"></polyline>
                    <path d="M6.8,16.8 L6.8,59.2" id="Shape" stroke-dasharray="3.3482,8.3696"></path>
                    <polyline id="Shape" points="6.8 63.4 6.8 65 8.4 65"></polyline>
                    <path d="M16.6,65 L46.9,65" id="Shape" stroke-dasharray="3.2491,8.1227"></path>
                    <path d="M51,65 L52.6,65" id="Shape"></path>
                    <path d="M0.2,0.4 L0.2,71.5 L62.4,71.5 L62.4,59.7 C65,62 68.4,63.4 72.2,63.4 C76,63.4 79.4,62 82,59.7 L82,71.5 L95.1,71.5 L95.1,0.4 L0.2,0.4 L0.2,0.4 L0.2,0.4 Z" id="Shape"></path>
                    <path d="M18.2,34.7 C18.2,38.3 21.1,41.2 24.8,41.2 C26.8,41.2 28.6,40.3 29.8,38.9 C31.3,37.1 30.9,34.4 29.1,33 L20.5,26.4 C18.6,25 18.3,22.3 19.8,20.5 C21,19.1 22.8,18.2 24.8,18.2 C28.4,18.2 31.4,21.1 31.4,24.7" id="Shape"></path>
                    <polyline id="Shape" points="24.8 14.9 24.8 35.9 24.8 44"></polyline>
                    <path d="M39.5,21.4 L77.2,21.4" id="Shape"></path>
                    <path d="M39.5,31.1 L57.5,31.1" id="Shape"></path>
                    <path d="M39.5,40.8 L52.6,40.8" id="Shape"></path>
                    <path d="M16.6,52.1 L51,52.1" id="Shape"></path>
                </g>
            </g>
        </g>
    </g>
</svg>