<svg xmlns="http://www.w3.org/2000/svg" width="23" height="19" viewBox="0 0 23 19"><path fill-rule="evenodd" d="M19.983 3.02c.96-.567 1.696-1.468 2.042-2.54-.897.527-1.89.908-2.95 1.113C18.228.7 17.02.143 15.684.143 13.12.143 11.04 2.2 11.04 4.738c0 .36.04.71.12 1.047C7.3 5.593 3.878 3.765 1.585.982c-.4.682-.628 1.47-.628 2.313 0 1.593.82 3 2.066 3.825-.76-.023-1.478-.232-2.105-.574v.057c0 2.227 1.6 4.085 3.728 4.506-.39.107-.8.16-1.226.16-.3 0-.59-.027-.873-.08.59 1.824 2.306 3.155 4.34 3.19-1.59 1.232-3.594 1.967-5.77 1.967-.374 0-.745-.02-1.108-.063 2.055 1.302 4.496 2.063 7.12 2.063 8.545 0 13.216-7.002 13.216-13.075 0-.2-.004-.4-.013-.594.908-.65 1.697-1.458 2.318-2.38-.83.366-1.728.613-2.667.723z"/></svg>