<svg xmlns="http://www.w3.org/2000/svg" viewBox="0 0 35 48"><path fill-rule="nonzero" d="M7.496 25.486c1.664-2.353 4.4-3.882 7.508-3.882h6.152c3.944 0 7.15-3.22 7.15-7.18v-2.008h2.052v2.007c0 5.122-4.102 9.24-9.202 9.24h-6.1c-3.943 0-7.15 3.222-7.15 7.182l-.04 4.564c2.702.595 4.71 3.137 4.71 6.218 0 3.528-2.684 6.35-5.926 6.35S.723 45.156.723 41.628c0-3.22 2.194-5.852 5.08-6.287V12.416h1.693v13.07zm-.846-13.07C3.408 12.416.723 9.77.723 6.464S3.408.562 6.65.562c3.242 0 5.927 2.646 5.927 5.952 0 3.307-2.685 5.902-5.927 5.902zm0-9.87c-2.18 0-3.952 1.78-3.952 3.968 0 2.188 1.773 3.97 3.952 3.97 2.178 0 3.95-1.782 3.95-3.97 0-2.187-1.772-3.968-3.95-3.968zm22.014 9.87c-3.242 0-5.927-2.645-5.927-5.952S25.422.562 28.664.562c3.242 0 5.927 2.646 5.927 5.952 0 3.307-2.684 5.902-5.926 5.902zM6.65 37.394c-2.18 0-3.952 1.9-3.952 4.234S4.47 45.86 6.65 45.86c2.178 0 3.95-1.898 3.95-4.232 0-2.334-1.772-4.234-3.95-4.234z"/></svg>