<svg xmlns="http://www.w3.org/2000/svg" width="21" height="21" viewBox="0 0 21 21"><path fill-rule="evenodd" d="M18.455 16.213c0 1.06-.87 1.92-1.943 1.92H4.074c-1.072 0-1.942-.86-1.942-1.92V8H5.16c-.264.637-.41 1.332-.41 2.06 0 3.024 2.486 5.485 5.543 5.485 3.058 0 5.544-2.46 5.544-5.485 0-.728-.147-1.423-.41-2.06h3.028v8.213zM7.4 8c.648-.89 1.702-1.472 2.893-1.472 1.19 0 2.245.583 2.893 1.472.425.58.676 1.29.676 2.06 0 1.946-1.6 3.53-3.57 3.53-1.966 0-3.567-1.584-3.567-3.53 0-.77.253-1.48.675-2.06zm10.236-5.66h.448v3.4l-3.426.01-.01-3.4 2.988-.01zM16.512.03H4.074C1.914.03.154 1.768.154 3.907v12.306c0 2.137 1.76 3.877 3.92 3.877h12.438c2.16 0 3.92-1.74 3.92-3.877V3.907c0-2.14-1.76-3.877-3.92-3.877z"/></svg>