<svg xmlns="http://www.w3.org/2000/svg" viewBox="0 0 36 40"><path fill-rule="nonzero" d="M34.866 26.447l-2.21-2.21c-.34-.34-.51-.68-.51-1.02L30.443 10.97C29.594 4.677 24.15.085 17.858.085S6.123 4.677 5.272 10.97l-1.7 12.246c0 .34-.17.68-.51 1.02L.85 26.446c-.51.51-.68 1.192-.68 1.872v1.53c0 1.36 1.19 2.552 2.55 2.552h30.615c1.36 0 2.552-1.19 2.552-2.55v-1.532c-.17-.85-.51-1.53-1.02-1.87zm-.85 3.232c0 .51-.34.85-.85.85H2.55c-.51 0-.85-.34-.85-.85v-1.532c0-.17.17-.51.17-.68l2.212-2.21c.51-.512.85-1.192 1.02-1.872l1.7-12.246c.852-5.442 5.444-9.524 10.886-9.524 5.443 0 10.205 4.082 10.885 9.524l1.7 12.246c.17.68.51 1.36 1.02 1.87l2.212 2.212c.17.17.17.34.17.68v1.53h.34zM28.743 1.445c-.34-.34-.34-.85 0-1.19.34-.34.85-.34 1.19 0 3.232 3.06 5.103 7.142 5.613 11.564 0 .51-.34.85-.85.85s-.85-.34-.85-.85c-.34-3.91-2.21-7.653-5.103-10.374zM0 11.82C.34 7.398 2.38 3.317 5.613.255c.34-.34.85-.34 1.19 0 .34.34.34.85 0 1.19C3.913 4.338 2.21 8.08 1.7 11.992c0 .51-.34.85-.85.85-.51-.17-.85-.68-.85-1.02zm21.94 22.11h1.7c-.34 2.892-2.89 5.103-5.952 5.103-3.06 0-5.612-2.21-5.953-5.102h1.7c.34 1.872 2.212 3.402 4.253 3.402 2.21 0 3.912-1.53 4.252-3.4z"/></svg>