<svg xmlns="http://www.w3.org/2000/svg" width="99" height="95" viewBox="0 0 99 95"><path fill-rule="evenodd" d="M25.35 48.035c.714.714.714 1.87 0 2.583-.357.357-.825.536-1.292.536-.468 0-.936-.18-1.292-.536l-2.362-2.362-2.362 2.362c-.357.357-.824.536-1.292.536-.468 0-.935-.18-1.292-.536-.714-.714-.714-1.87 0-2.583l2.363-2.362-2.362-2.362c-.714-.714-.714-1.868 0-2.583.715-.714 1.87-.714 2.584 0l2.362 2.363 2.362-2.363c.714-.714 1.87-.714 2.583 0 .714.715.714 1.87 0 2.584l-2.363 2.363 2.362 2.362zM72.53 58.8c-.46-.9-.102-2 .795-2.46 1.898-.97 3.58-2.356 4.996-4.123.633-.787 1.784-.908 2.57-.28.787.63.912 1.78.28 2.567-1.74 2.17-3.82 3.883-6.183 5.09-.265.135-.55.2-.83.2-.662 0-1.304-.364-1.627-.995zm11.796-26.155c.108-1.68.163-3.457.163-5.283 0-.612-.006-1.235-.02-1.87-.016-1.008.786-1.84 1.795-1.857h.035c.993 0 1.808.794 1.825 1.794.012.653.018 1.298.018 1.932 0 1.903-.057 3.76-.17 5.515-.062.968-.866 1.712-1.82 1.712-.04 0-.08-.003-.12-.005-1.007-.064-1.77-.933-1.707-1.94zm-2.713 13.717c.775-1.98 1.4-4.23 1.862-6.692.185-.994 1.135-1.634 2.132-1.462.992.188 1.644 1.142 1.46 2.132-.504 2.69-1.193 5.16-2.052 7.353-.28.72-.972 1.16-1.7 1.16-.224 0-.448-.038-.668-.124-.94-.37-1.4-1.43-1.034-2.368zm-70.327 30.12c.02-.137.482-3.422 2.358-7.486.422-.918 1.507-1.32 2.425-.896.914.424 1.314 1.51.892 2.426-1.633 3.54-2.052 6.428-2.055 6.457-.13.912-.912 1.573-1.81 1.573-.08 0-.167-.006-.25-.018-1-.137-1.697-1.056-1.56-2.056zm6.725-11.497c-.77-.65-.87-1.803-.22-2.574 1.72-2.036 3.708-3.768 5.91-5.15.855-.538 1.984-.28 2.52.577.536.855.277 1.982-.576 2.52-1.884 1.18-3.585 2.663-5.057 4.41-.362.428-.88.65-1.4.65-.415 0-.833-.14-1.176-.432zM44.038 55.2c.154-.997 1.087-1.68 2.083-1.53 1.87.284 3.818.686 5.797 1.194.13.035.255.082.374.143.032.016.504.252 1.31.59.93.39 1.37 1.458.98 2.39-.292.7-.972 1.123-1.686 1.123-.234 0-.473-.046-.703-.143-.653-.272-1.12-.49-1.366-.61-1.798-.456-3.564-.818-5.256-1.076-.997-.15-1.683-1.084-1.53-2.08zm51.27 20.43L67.905 90.14V61.53c.68-.31 1.133-1.004 1.073-1.792-.053-.683-.492-1.236-1.073-1.503V19.37L95.308 4.86v70.77zM64.25 58.09c-1.304-.056-2.63-.21-4.02-.48-.995-.195-1.95.455-2.142 1.445-.192.99.455 1.95 1.445 2.14 1.62.314 3.192.47 4.717.53v28.72L36.846 79.162V56.928c.587-.044 1.155-.12 1.756-.134 1.01-.02 1.81-.856 1.79-1.867-.023-.994-.836-1.786-1.828-1.786h-.04c-.567.012-1.124.043-1.678.082V4.862L64.25 19.37v38.72zm-31.058-4.417c-.785.143-1.56.303-2.31.5-.973.26-1.554 1.26-1.296 2.235.217.818.956 1.36 1.765 1.36.156 0 .313-.02.47-.06.44-.118.917-.176 1.372-.27v21.63L3.962 88.81V14.105l29.23-9.743v49.31zM98.078.263C97.53-.07 96.845-.087 96.28.21L66.077 16.204 35.874.21C35.85.2 35.824.196 35.8.185c-.088-.042-.18-.073-.275-.102-.047-.013-.095-.03-.142-.04-.106-.022-.214-.03-.322-.032-.04 0-.08-.007-.123-.005-.102.005-.2.026-.3.048-.054.01-.107.018-.158.032-.014.006-.027.004-.038.01L1.557 11.055c-.747.25-1.25.946-1.25 1.733v78.558c0 .587.282 1.138.76 1.484.315.226.69.343 1.068.343.193 0 .39-.03.577-.095L34.95 82.332l30.43 12.53c.027.012.056.007.083.018.2.07.404.12.614.12.165 0 .327-.027.486-.073.05-.013.1-.037.15-.055.073-.027.148-.047.22-.084L97.99 78.346c.597-.316.972-.94.972-1.615V1.827c0-.64-.336-1.235-.884-1.563zM20.404 29.23c-3.022 0-5.48-2.46-5.48-5.48 0-3.022 2.458-5.48 5.48-5.48 3.022 0 5.48 2.458 5.48 5.48 0 3.02-2.458 5.48-5.48 5.48zm0-14.615c-5.037 0-9.135 4.098-9.135 9.135 0 4.412 3.143 8.1 7.307 8.95v3.838c0 1.01.818 1.827 1.827 1.827 1.008 0 1.827-.816 1.827-1.827V32.7c4.164-.85 7.31-4.538 7.31-8.95 0-5.037-4.1-9.135-9.136-9.135z"/></svg>