<svg xmlns="http://www.w3.org/2000/svg" viewBox="0 0 56.693 56.693"><path d="M30.07 27.1v-.076c-.015.026-.032.052-.05.077h.05z"/><path d="M49.265 4.667H7.145c-2.016 0-3.65 1.596-3.65 3.563v42.613c0 1.966 1.634 3.562 3.65 3.562h42.12c2.02 0 3.654-1.597 3.654-3.562V8.23c0-1.968-1.637-3.563-3.655-3.563zm-30.79 41.637H11.01v-22.46h7.465v22.46zm-3.732-25.527h-.05c-2.504 0-4.124-1.725-4.124-3.88 0-2.203 1.67-3.88 4.222-3.88 2.554 0 4.125 1.677 4.175 3.88 0 2.155-1.622 3.88-4.224 3.88zm30.65 25.527H37.93V34.286c0-3.018-1.08-5.078-3.782-5.078-2.062 0-3.29 1.39-3.83 2.73-.198.48-.246 1.15-.246 1.822v12.543h-7.465s.098-20.354 0-22.46h7.465v3.18c.992-1.53 2.766-3.71 6.73-3.71 4.91 0 8.593 3.212 8.593 10.11v12.88z"/></svg>