<svg xmlns="http://www.w3.org/2000/svg" viewBox="0 0 366 233"><g fill="#817AAA"><path d="M200.09 20.406l4.13-.618c9.253-1.404 18.42 3.007 23.096 11.112l44.28 76.71c8.236 14.258 21.74 24.715 37.61 29.12l13.938 3.868c25.034 6.947 42.37 29.726 42.396 55.708.01 14.994-7.03 25.268-19.802 30.886-9.642 4.242-21.807 5.768-38.778 5.768h-33.447c-14.792.007-29.222-4.566-41.308-13.088L74.61 123.19c-20.916-14.843-26.377-43.31-12.546-64.672l31.53-48.67C99.68.447 112.22-2.277 121.66 3.754c23.266 14.857 51.13 20.773 78.43 16.653zM238.82 209.85c10.253 7.274 22.32 11.116 34.692 11.11h33.45c32.432 0 46.594-6.23 46.58-24.644-.02-20.593-13.762-38.648-33.605-44.155l-13.94-3.87c-18.897-5.243-34.98-17.697-44.79-34.68l-44.282-76.712c-2.208-3.826-6.535-5.908-10.914-5.244l-4.135.62c-30.166 4.55-60.96-1.988-86.674-18.407-3.88-2.48-9.032-1.36-11.534 2.505l-31.53 48.67c-10.3 15.91-6.282 37.095 9.1 48.133l157.582 96.675z"/><path d="M188.005 74.97l55-.05-.01-12-55 .05.01 12zm28 28l41-.04-.01-12-41 .04.01 12zm19 26l40-.04-.01-12-40 .04.01 12zM58.94 92.32l189.7 112.48c9.02 5.365 19.327 8.2 29.83 8.2l79.538-.1-.016-12-79.53.1c-8.335 0-16.524-2.252-23.695-6.517L65.06 82l-6.12 10.32zM123 176.97H26v12h97v-12zm37 22H63v12h97v-12zm-160-10h16v-12H0v12zm37 22h16v-12H37v12zm155 10H95v12h97v-12zm-123 12h16v-12H69v12z"/></g></svg>