<svg xmlns="http://www.w3.org/2000/svg" viewBox="0 0 27 37"><path fill="#FFF" fill-rule="evenodd" d="M21.883 19.296c.126 5.314 4.253 7.132 4.378 7.41 0 .14-.624 2.518-2.25 5.035-1.376 2.1-2.752 4.336-4.878 4.336-2.126 0-2.877-1.398-5.253-1.398-2.503 0-3.253 1.258-5.254 1.398-2.002.14-3.628-2.237-5.003-4.475C.87 27.128-1.255 19.018 1.62 13.564 2.998 10.907 5.5 9.09 8.126 9.09c2-.14 4.003 1.537 5.253 1.537s3.628-1.958 6.13-1.678c1 0 4 .42 5.877 3.495-.25.14-3.502 2.377-3.502 6.85zM17.88 6.013C16.756 7.55 15.005 8.67 13.13 8.39c-.25-1.958.626-4.195 1.626-5.454C16.004 1.538 17.88.42 19.507.28c.25 2.097-.5 4.195-1.626 5.733z" /></svg>