<svg xmlns="http://www.w3.org/2000/svg" width="107" height="81" viewBox="0 0 107 81"><path fill-rule="evenodd" d="M103.433 77.4h-5.35l2.854-2.16c.788-.596.947-1.724.356-2.52-.59-.796-1.705-.954-2.496-.36L92.14 77.4H85.6l2.853-2.16c.79-.596.947-1.724.357-2.52s-1.705-.954-2.497-.36l-6.657 5.04h-6.54l2.854-2.16c.788-.596.947-1.724.357-2.52s-1.705-.954-2.497-.36l-6.657 5.04h-6.54l2.854-2.16c.788-.596.947-1.724.356-2.52-.588-.796-1.705-.954-2.496-.36L54.69 77.4h-6.54l2.853-2.16c.79-.596.947-1.724.357-2.52-.588-.796-1.705-.954-2.497-.36l-6.657 5.04h-6.54l2.854-2.16c.788-.596.947-1.724.357-2.52s-1.705-.954-2.497-.36l-6.657 5.04h-6.54l2.854-2.16c.788-.596.947-1.724.356-2.52-.59-.796-1.705-.954-2.496-.36L17.24 77.4H10.7l2.853-2.16c.79-.596.947-1.724.357-2.52s-1.705-.954-2.497-.36L4.756 77.4h-1.19V3.6h5.35L6.064 5.76c-.788.596-.947 1.724-.356 2.52.35.472.886.72 1.428.72.37 0 .747-.117 1.068-.36L14.86 3.6h6.54l-2.853 2.16c-.79.596-.947 1.724-.357 2.52.35.472.886.72 1.428.72.37 0 .748-.117 1.07-.36l6.656-5.04h6.54L31.03 5.76c-.788.596-.947 1.724-.357 2.52.35.472.887.72 1.43.72.37 0 .746-.117 1.067-.36l6.657-5.04h6.54l-2.854 2.16c-.788.596-.947 1.724-.356 2.52.35.472.886.72 1.428.72.37 0 .747-.117 1.068-.36L52.31 3.6h6.54l-2.853 2.16c-.79.596-.947 1.724-.357 2.52.35.472.886.72 1.428.72.37 0 .748-.117 1.07-.36l6.656-5.04h6.54L68.48 5.76c-.788.596-.947 1.724-.357 2.52.35.472.887.72 1.43.72.37 0 .746-.117 1.067-.36l6.657-5.04h6.54l-2.854 2.16c-.788.596-.947 1.724-.356 2.52.35.472.886.72 1.428.72.37 0 .747-.117 1.068-.36L89.76 3.6h6.54l-2.853 2.16c-.79.596-.947 1.724-.357 2.52.35.472.886.72 1.428.72.37 0 .748-.117 1.07-.36l6.656-5.04h1.19v73.8zM0 81h107V0H0v81zm30.317-57.6c0-.995-.8-1.8-1.784-1.8H14.267c-.985 0-1.784.805-1.784 1.8s.8 1.8 1.784 1.8h14.266c.985 0 1.784-.805 1.784-1.8zm21.4 18c0-.995-.8-1.8-1.784-1.8H14.267c-.985 0-1.784.805-1.784 1.8s.8 1.8 1.784 1.8h35.666c.985 0 1.784-.805 1.784-1.8zm0-9c0-.995-.8-1.8-1.784-1.8H14.267c-.985 0-1.784.805-1.784 1.8s.8 1.8 1.784 1.8h35.666c.985 0 1.784-.805 1.784-1.8zM80.25 36h10.7V25.2h-10.7V36zm14.267 3.6H76.683v-18h17.834v18z"/></svg>