<?xml version="1.0" encoding="UTF-8" standalone="no"?>
<svg width="99px" height="95px" viewBox="0 0 99 95" version="1.1" xmlns="http://www.w3.org/2000/svg" xmlns:xlink="http://www.w3.org/1999/xlink">
    <!-- Generator: Sketch 3.6.1 (26313) - http://www.bohemiancoding.com/sketch -->
    <title>Stamp</title>
    <desc>Created with Sketch.</desc>
    <defs></defs>
    <g id="Page-1" stroke="none" stroke-width="1" fill="none" fill-rule="evenodd">
        <g id="About---Dtop" transform="translate(-1282.000000, -1744.000000)" fill="#D7ED1F">
            <g id="Founders" transform="translate(-7.000000, 1235.000000)">
                <g id="Dirk" transform="translate(1026.000000, 287.000000)">
                    <path d="M288.349364,270.035103 C289.063695,270.749434 289.063695,271.904057 288.349364,272.618388 C287.993111,272.97464 287.525416,273.153679 287.057721,273.153679 C286.590026,273.153679 286.122331,272.97464 285.766079,272.618388 L283.403854,270.256162 L281.041629,272.618388 C280.685377,272.97464 280.217682,273.153679 279.749987,273.153679 C279.282292,273.153679 278.814597,272.97464 278.458345,272.618388 C277.744014,271.904057 277.744014,270.749434 278.458345,270.035103 L280.82057,267.672878 L278.458345,265.310653 C277.744014,264.596322 277.744014,263.4417 278.458345,262.727369 C279.172676,262.013038 280.327298,262.013038 281.041629,262.727369 L283.403854,265.089594 L285.766079,262.727369 C286.48041,262.013038 287.635033,262.013038 288.349364,262.727369 C289.063695,263.4417 289.063695,264.596322 288.349364,265.310653 L285.987138,267.672878 L288.349364,270.035103 Z M335.529924,280.799396 C335.071364,279.900545 335.427616,278.800731 336.32464,278.340344 C338.222824,277.370242 339.903603,275.983599 341.321304,274.216954 C341.953423,273.429546 343.104391,273.308968 343.889972,273.935607 C344.677381,274.565899 344.801612,275.716867 344.17132,276.504275 C342.430252,278.674673 340.349375,280.386509 337.98715,281.594112 C337.722245,281.729306 337.437243,281.795075 337.157722,281.795075 C336.494545,281.795075 335.853291,281.429688 335.529924,280.799396 L335.529924,280.799396 Z M347.326435,254.645015 C347.434224,252.964236 347.489032,251.188456 347.489032,249.361523 C347.489032,248.7495 347.483551,248.126515 347.470762,247.49257 C347.45432,246.484102 348.256344,245.65102 349.264811,245.634578 L349.299523,245.634578 C350.293375,245.634578 351.108187,246.429294 351.12463,247.428627 C351.137418,248.082669 351.142899,248.727577 351.142899,249.361523 C351.142899,251.265187 351.086264,253.121352 350.972994,254.877035 C350.910878,255.84531 350.107028,256.588872 349.151541,256.588872 C349.113176,256.588872 349.072983,256.587045 349.032791,256.585218 C348.02615,256.521275 347.262492,255.651655 347.326435,254.645015 L347.326435,254.645015 Z M344.613438,268.361632 C345.388058,266.383063 346.012869,264.132281 346.475084,261.669574 C346.659604,260.675723 347.609609,260.036296 348.607115,260.208028 C349.59914,260.396202 350.251355,261.349861 350.066835,262.340059 C349.562601,265.029305 348.873847,267.501147 348.015189,269.693467 C347.733841,270.413279 347.04326,270.85357 346.314313,270.85357 C346.091427,270.85357 345.866715,270.815204 345.647483,270.729338 C344.708439,270.360298 344.246224,269.300676 344.613438,268.361632 L344.613438,268.361632 Z M274.285629,298.482287 C274.305725,298.345267 274.767939,295.06044 276.6442,290.995513 C277.066222,290.078392 278.15142,289.676467 279.068541,290.100315 C279.983835,290.524164 280.383933,291.609363 279.961911,292.526483 C278.328633,296.065254 277.910265,298.953636 277.906611,298.982867 C277.776899,299.894506 276.994971,300.555856 276.097947,300.555856 C276.015735,300.555856 275.929869,300.550376 275.84583,300.537587 C274.846497,300.400567 274.150435,299.481619 274.285629,298.482287 L274.285629,298.482287 Z M281.010571,286.985394 C280.239605,286.335005 280.140951,285.18221 280.791339,284.411244 C282.508657,282.374213 284.498187,280.64228 286.701469,279.259291 C287.554647,278.722173 288.683692,278.97977 289.220811,279.836602 C289.756102,280.691607 289.496678,281.818825 288.6435,282.355944 C286.759931,283.536143 285.059056,285.019613 283.586548,286.766161 C283.224815,287.195491 282.707793,287.41655 282.187116,287.41655 C281.772403,287.41655 281.354035,287.275876 281.010571,286.985394 L281.010571,286.985394 Z M307.037068,277.19851 C307.19053,276.202831 308.124093,275.521385 309.119772,275.669367 C310.988725,275.954368 312.938063,276.356294 314.916632,276.864181 C315.046344,276.898893 315.172403,276.946393 315.291154,277.006682 C315.322211,277.023125 315.79356,277.258799 316.599238,277.596782 C317.530974,277.985919 317.969438,279.054675 317.580301,279.986411 C317.287992,280.687953 316.608373,281.109975 315.894042,281.109975 C315.660194,281.109975 315.420866,281.064302 315.190672,280.967474 C314.53663,280.695261 314.068935,280.476029 313.824126,280.357278 C312.026423,279.900545 310.259778,279.538812 308.568038,279.281214 C307.570532,279.129579 306.885432,278.196016 307.037068,277.19851 L307.037068,277.19851 Z M358.308133,297.629109 L330.904128,312.138616 L330.904128,283.528835 C331.583748,283.220083 332.036827,282.525849 331.976538,281.73844 C331.923557,281.055167 331.485093,280.501606 330.904128,280.234874 L330.904128,241.370515 L358.308133,226.861008 L358.308133,297.629109 Z M327.250261,280.090546 C325.94583,280.033911 324.619477,279.878622 323.22918,279.610063 C322.235328,279.414581 321.279842,280.064969 321.088014,281.055167 C320.896186,282.045365 321.54292,283.006332 322.533118,283.196333 C324.151782,283.508739 325.724771,283.664028 327.250261,283.724317 L327.250261,312.44554 L299.846257,301.160571 L299.846257,278.926789 C300.432702,278.882943 301.000879,278.806212 301.60194,278.793423 C302.612234,278.7715 303.412431,277.936591 303.390508,276.926297 C303.368585,275.932445 302.555599,275.139556 301.563574,275.139556 L301.523382,275.139556 C300.957032,275.152344 300.399818,275.183402 299.846257,275.221768 L299.846257,226.861008 L327.250261,241.370515 L327.250261,280.090546 Z M296.19239,275.673021 C295.406808,275.815521 294.632188,275.976292 293.883145,276.1736 C292.90939,276.433025 292.328425,277.434185 292.586023,278.40794 C292.803428,279.226406 293.541509,279.767179 294.35084,279.767179 C294.50613,279.767179 294.663246,279.747083 294.820362,279.70689 C295.258826,279.589966 295.737483,279.531504 296.19239,279.436504 L296.19239,301.067398 L266.961452,310.810435 L266.961452,236.105292 L296.19239,226.362255 L296.19239,275.673021 Z M361.077764,222.262616 C360.529684,221.930114 359.844584,221.913672 359.280061,222.211462 L329.077195,238.202612 L298.874328,222.211462 C298.850578,222.198674 298.823174,222.19502 298.799424,222.184058 C298.711731,222.142039 298.620384,222.110981 298.525384,222.08175 C298.477884,222.068961 298.430383,222.052519 298.382883,222.041557 C298.276921,222.019634 298.169132,222.012326 298.061343,222.010499 C298.019323,222.008673 297.979131,222.003192 297.937111,222.005019 C297.834803,222.010499 297.736148,222.030596 297.635667,222.052519 C297.582686,222.063481 297.529705,222.070788 297.478551,222.085404 C297.465762,222.090885 297.452974,222.089058 297.442012,222.094538 L264.557207,233.05614 C263.809991,233.304603 263.307584,234.000665 263.307584,234.788073 L263.307584,313.346219 C263.307584,313.932664 263.588932,314.484398 264.065762,314.829689 C264.381821,315.056229 264.756343,315.173152 265.134518,315.173152 C265.328173,315.173152 265.523655,315.142094 265.711829,315.078152 L297.9499,304.332128 L328.381133,316.863066 C328.40671,316.874028 328.435941,316.868547 328.463345,316.879508 C328.662481,316.950759 328.867097,317.000086 329.077195,317.000086 C329.241619,317.000086 329.404216,316.972682 329.563159,316.927009 C329.614313,316.91422 329.661813,316.89047 329.712968,316.872201 C329.786045,316.844797 329.860949,316.8247 329.9322,316.788162 L360.990071,300.345759 C361.587478,300.0297 361.962,299.406715 361.962,298.73075 L361.962,223.826471 C361.962,223.185218 361.625844,222.591464 361.077764,222.262616 L361.077764,222.262616 Z M283.403854,251.230476 C280.382106,251.230476 277.923053,248.771423 277.923053,245.749675 C277.923053,242.727927 280.382106,240.268874 283.403854,240.268874 C286.425602,240.268874 288.884655,242.727927 288.884655,245.749675 C288.884655,248.771423 286.425602,251.230476 283.403854,251.230476 L283.403854,251.230476 Z M283.403854,236.615007 C278.366998,236.615007 274.269186,240.712819 274.269186,245.749675 C274.269186,250.16172 277.413339,253.850299 281.576921,254.699823 L281.576921,258.53821 C281.576921,259.548504 282.395387,260.365144 283.403854,260.365144 C284.412322,260.365144 285.230788,259.548504 285.230788,258.53821 L285.230788,254.699823 C289.39437,253.850299 292.538522,250.16172 292.538522,245.749675 C292.538522,240.712819 288.44071,236.615007 283.403854,236.615007 L283.403854,236.615007 Z" id="Stamp"></path>
                </g>
            </g>
        </g>
    </g>
</svg>