<svg xmlns="http://www.w3.org/2000/svg" width="24" height="25" viewBox="0 0 24 25">
  <path fill-rule="evenodd" d="M10.717 6.876c0-2.432.1-4.186.298-5.262.2-1.076.525-1.614.977-1.614.463 0 .793.522.993 1.566.2 1.043.298 2.813.298 5.31l3.244 2.42v-.37c0-.356.054-.625.162-.808.106-.183.262-.274.467-.274.204 0 .36.09.468.274.107.183.16.452.16.807v1.292l2.115 1.55v-.356c0-.354.054-.626.162-.814.107-.188.263-.283.468-.283.204 0 .36.095.468.283.108.188.16.46.16.815v1.292c1.045.603 1.78 1.186 2.204 1.75.425.566.638 1.225.638 1.978v.34c-2.39-1.152-4.487-2.07-6.295-2.753-1.807-.683-2.99-1.024-3.55-1.024-.592 0-.942.995-1.05 2.985-.085 1.593-.204 2.954-.354 4.084.162.215.51.527 1.042.936.532.41 1.277.936 2.235 1.582.075.29.14.59.194.895.054.307.103.622.146.945-.764-.312-1.477-.573-2.14-.783-.66-.21-1.293-.374-1.895-.492-.02.15-.058.312-.112.484-.054.17-.13.348-.226.53-.065-.138-.124-.292-.178-.46-.053-.165-.102-.35-.145-.555-.625.13-1.273.3-1.946.516-.672.216-1.37.474-2.09.776.065-.506.167-1.092.307-1.76.012-.043.022-.075.033-.096.968-.646 1.72-1.173 2.252-1.582.532-.41.868-.716 1.008-.92-.118-1.065-.22-2.367-.306-3.906-.12-2.12-.48-3.18-1.082-3.18-.548 0-1.716.34-3.502 1.017-1.786.677-3.9 1.597-6.343 2.76v-.34c0-.753.213-1.412.638-1.977.425-.565 1.16-1.148 2.203-1.75V11.41c0-.354.054-.626.162-.814.108-.188.264-.283.468-.283.205 0 .36.095.468.283.108.188.162.46.162.815v.356l2.114-1.55v-1.29c0-.356.054-.625.16-.808.11-.183.265-.274.47-.274.204 0 .36.09.467.274.11.183.163.452.163.807v.372l3.244-2.42z"/>
</svg>