<svg xmlns="http://www.w3.org/2000/svg" viewBox="0 0 39 43"><path fill-rule="nonzero" d="M19.264 3.67C8.624 3.67 0 12.29 0 22.932c0 10.642 8.623 19.265 19.264 19.265 10.64 0 19.264-8.623 19.264-19.265 0-10.64-8.623-19.264-19.264-19.264zm0 36.693c-9.54 0-17.43-7.89-17.43-17.43s7.89-17.43 17.43-17.43 17.43 7.89 17.43 17.43-7.706 17.43-17.43 17.43zM13.026.917c0-.55.367-.917.918-.917h11.008c.55 0 .917.367.917.917s-.368.918-.918.918H13.944c-.55 0-.918-.367-.918-.918zm22.016 4.587c0-1.1.734-1.835 1.835-1.835 1.1 0 1.835.733 1.835 1.834 0 1.1-.734 1.835-1.835 1.835-1.1 0-1.835-.735-1.835-1.836zm-5.87 7.706c.366.367.366.917 0 1.284l-7.34 7.34c.184.366.184.733.184 1.1 0 1.467-1.284 2.75-2.752 2.75-1.468 0-2.752-1.283-2.752-2.75 0-1.468 1.284-2.753 2.752-2.753.367 0 .734.185 1.1.185l7.34-7.34c.367-.182 1.1-.182 1.467.185z"/></svg>