<svg xmlns="http://www.w3.org/2000/svg" viewBox="0 0 37 42"><path fill-rule="nonzero" d="M14.462 35.412c.494 0 .823.33.823.823 0 .493-.33.822-.823.822h-3.29c-.493 0-.822-.33-.822-.822 0-.494.33-.823.822-.823h3.29zm22.37-23.85V24.72c0 1.316-1.15 2.468-2.466 2.468H25.32v12.337c0 1.316-1.153 2.467-2.47 2.467H3.113c-1.316 0-2.467-1.15-2.467-2.467V3.337C.645 2.02 1.795.87 3.112.87h19.74c1.315 0 2.467 1.15 2.467 2.467v5.757h9.046c1.315 0 2.467 1.15 2.467 2.467zm-9.8 7.04l-1.796 1.973.018-7.04c0-.493-.33-.822-.822-.822-.494 0-.823.33-.823.823l-.02 7.04-2.25-1.974c-.33-.33-.823-.33-1.152 0-.33.33-.33.823 0 1.152l3.732 3.453c.165.164.33.164.658.164.33 0 .494 0 .658-.163l3.275-3.453c.33-.33.33-.823 0-1.152-.328-.33-1.15-.164-1.48 0zm-3.358 8.586h-9.047c-1.316 0-2.468-1.152-2.468-2.468V11.56c0-1.315 1.15-2.466 2.467-2.466h9.047V3.337c0-.494-.33-.823-.823-.823H3.113c-.493 0-.822.33-.822.823v36.188c0 .493.33.822.822.822h19.74c.493 0 .822-.33.822-.822V27.188zM35.188 11.56c0-.492-.33-.82-.822-.82h-19.74c-.493 0-.822.328-.822.82v13.16c0 .494.33.823.823.823h19.74c.492 0 .82-.33.82-.823V11.56z"/></svg>