<svg xmlns="http://www.w3.org/2000/svg" width="88" height="59" viewBox="0 0 88 59">
  <g fill-rule="evenodd">
    <path d="M14.183 10.42v34.613h59.54V10.42m1.626-2.29c.292 0 .53.252.53.563V46.76c0 .31-.238.562-.53.562H12.553c-.293 0-.53-.252-.53-.563V8.692c0-.31.237-.563.53-.563"/>
    <path d="M87.484 52.25c0-.362-.1-.692-.29-.954-.12-.164-.27-.29-.44-.384v-.222h-4.37V6.548c0-4.407-3.648-5.796-5.612-5.915l-66.13.002c-1.916.12-5.54 1.51-5.54 5.913V50.69H1.42c-.45 0-.858.21-1.12.57-.196.27-.3.612-.3.99 0 1.1.957 2.757 1.527 3.646 1.15 1.797 2.08 2.635 2.924 2.635h79.223v-.22c1.683-.836 3.81-4.764 3.81-6.06zm-2.59.92c-.52 1.03-1.485 2.505-1.935 2.883H4.65c-.422-.337-1.41-1.8-1.95-2.884h82.195zM7.455 6.547c0-3.103 2.96-3.413 3.26-3.437h65.99c.136.007 3.328.228 3.328 3.438V50.69H7.452V6.548z"/>
    <path d="M45.345 5.677c0 .504-.405.91-.905.91s-.905-.406-.905-.91c0-.503.406-.91.905-.91.5 0 .905.407.905.91"/>
  </g>
</svg>