<?xml version="1.0" encoding="UTF-8" standalone="no"?>
<svg width="115px" height="69px" viewBox="0 0 115 69" version="1.1" xmlns="http://www.w3.org/2000/svg" xmlns:xlink="http://www.w3.org/1999/xlink">
    <!-- Generator: Sketch 3.6.1 (26313) - http://www.bohemiancoding.com/sketch -->
    <title>Stamp</title>
    <desc>Created with Sketch.</desc>
    <defs></defs>
    <g id="Page-1" stroke="none" stroke-width="1" fill="none" fill-rule="evenodd">
        <g id="About---Dtop" transform="translate(-286.000000, -1591.000000)" fill="#D7ED1F">
            <g id="Founders" transform="translate(-7.000000, 1235.000000)">
                <g id="Iain" transform="translate(293.000000, 286.000000)">
                    <path d="M114.264524,113.70667 C113.409953,113.016668 112.162795,113.154668 111.476759,113.998442 C109.739859,116.135475 107.469595,117.31242 105.086314,117.31242 C102.703032,117.31242 100.432769,116.135475 98.6958683,113.998442 C96.1936213,110.919063 92.8288724,109.223631 89.2242091,109.223631 C85.6195459,109.223631 82.2547969,110.919063 79.7525499,113.998442 C78.0156495,116.135475 75.7453858,117.314392 73.3621046,117.314392 C70.9788234,117.314392 68.7085596,116.135475 66.9716592,113.998442 C64.4694122,110.919063 61.1046633,109.223631 57.5,109.223631 C53.8953367,109.223631 50.5305878,110.919063 48.0283408,113.998442 C46.2914404,116.135475 44.0211766,117.314392 41.6378954,117.314392 C39.2546142,117.314392 36.9843505,116.135475 35.2474501,113.998442 C32.7452031,110.919063 29.3804541,109.223631 25.7757909,109.223631 C22.1711276,109.223631 18.8063787,110.919063 16.3041317,113.998442 C14.5672312,116.135475 12.2969675,117.314392 9.91368631,117.314392 C7.5304051,117.314392 5.26014139,116.135475 3.52324094,113.998442 C2.83918768,113.154668 1.59202971,113.016668 0.735476059,113.70667 C-0.115129298,114.390757 -0.247974424,115.63276 0.442027124,116.478504 C2.94427412,119.559854 6.30902305,121.257258 9.91368631,121.257258 C13.5183496,121.257258 16.8830985,119.559854 19.3853455,116.478504 C21.1222459,114.341471 23.3925097,113.166497 25.7757909,113.166497 C28.1590721,113.166497 30.4293358,114.341471 32.1662363,116.478504 C34.6684832,119.559854 38.0332322,121.257258 41.6378954,121.257258 C45.2425587,121.257258 48.6073076,119.559854 51.1095546,116.478504 C52.8464551,114.341471 55.1167188,113.166497 57.5,113.166497 C59.8832812,113.166497 62.1535449,114.341471 63.8904454,116.478504 C66.3926924,119.559854 69.7574413,121.257258 73.3621046,121.257258 C76.9667678,121.257258 80.3315168,119.559854 82.8337637,116.478504 C84.5706642,114.341471 86.8409279,113.166497 89.2242091,113.166497 C91.6074903,113.166497 93.8777541,114.341471 95.6146545,116.478504 C98.1169015,119.559854 101.48165,121.255286 105.086314,121.255286 C108.690977,121.255286 112.055726,119.559854 114.557973,116.478504 C115.247974,115.63276 115.115129,114.390757 114.264524,113.70667 M114.264524,131.449566 C113.409953,130.759565 112.162795,130.897565 111.476759,131.741339 C109.739859,133.878372 107.469595,135.055317 105.086314,135.055317 C102.703032,135.055317 100.432769,133.878372 98.6958683,131.741339 C96.1936213,128.66196 92.8288724,126.966528 89.2242091,126.966528 C85.6195459,126.966528 82.2547969,128.66196 79.7525499,131.741339 C78.0156495,133.878372 75.7453858,135.057289 73.3621046,135.057289 C70.9788234,135.057289 68.7085596,133.878372 66.9716592,131.741339 C64.4694122,128.66196 61.1046633,126.966528 57.5,126.966528 C53.8953367,126.966528 50.5305878,128.66196 48.0283408,131.741339 C46.2914404,133.878372 44.0211766,135.057289 41.6378954,135.057289 C39.2546142,135.057289 36.9843505,133.878372 35.2474501,131.741339 C32.7452031,128.66196 29.3804541,126.966528 25.7757909,126.966528 C22.1711276,126.966528 18.8063787,128.66196 16.3041317,131.741339 C14.5672312,133.878372 12.2969675,135.057289 9.91368631,135.057289 C7.5304051,135.057289 5.26014139,133.878372 3.52324094,131.741339 C2.83918768,130.897565 1.59202971,130.759565 0.735476059,131.449566 C-0.115129298,132.133654 -0.247974424,133.375657 0.442027124,134.221401 C2.94427412,137.302751 6.30902305,139.000155 9.91368631,139.000155 C13.5183496,139.000155 16.8830985,137.302751 19.3853455,134.221401 C21.1222459,132.084368 23.3925097,130.909394 25.7757909,130.909394 C28.1590721,130.909394 30.4293358,132.084368 32.1662363,134.221401 C34.6684832,137.302751 38.0332322,139.000155 41.6378954,139.000155 C45.2425587,139.000155 48.6073076,137.302751 51.1095546,134.221401 C52.8464551,132.084368 55.1167188,130.909394 57.5,130.909394 C59.8832812,130.909394 62.1535449,132.084368 63.8904454,134.221401 C66.3926924,137.302751 69.7574413,139.000155 73.3621046,139.000155 C76.9667678,139.000155 80.3315168,137.302751 82.8337637,134.221401 C84.5706642,132.084368 86.8409279,130.909394 89.2242091,130.909394 C91.6074903,130.909394 93.8777541,132.084368 95.6146545,134.221401 C98.1169015,137.302751 101.48165,138.998183 105.086314,138.998183 C108.690977,138.998183 112.055726,137.302751 114.557973,134.221401 C115.247974,133.375657 115.115129,132.133654 114.264524,131.449566 M114.264524,74.4830386 C113.409953,73.7950085 112.162795,73.9310374 111.476759,74.7767821 C109.739859,76.9138155 107.469595,78.090761 105.086314,78.090761 C102.703032,78.090761 100.432769,76.9138155 98.6958683,74.7767821 C96.1936213,71.6954324 92.8288724,70 89.2242091,70 C85.6195459,70 82.2547969,71.6954324 79.7525499,74.7767821 C78.0156495,76.9138155 75.7453858,78.0927324 73.3621046,78.0927324 C70.9788234,78.0927324 68.7085596,76.9138155 66.9716592,74.7767821 C64.4694122,71.6954324 61.1046633,70 57.5,70 C53.8953367,70 50.5305878,71.6954324 48.0283408,74.7767821 C46.2914404,76.9138155 44.0211766,78.0927324 41.6378954,78.0927324 C39.2546142,78.0927324 36.9843505,76.9138155 35.2474501,74.7767821 C32.7452031,71.6954324 29.3804541,70 25.7757909,70 C22.1711276,70 18.8063787,71.6954324 16.3041317,74.7767821 C14.5672312,76.9138155 12.2969675,78.0927324 9.91368631,78.0927324 C7.5304051,78.0927324 5.26014139,76.9138155 3.52324094,74.7767821 C2.83918768,73.9310374 1.59202971,73.7950085 0.735476059,74.4830386 C-0.115129298,75.1671259 -0.247974424,76.4091287 0.442027124,77.2568449 C2.94427412,80.3362232 6.30902305,82.0355984 9.91368631,82.0355984 C13.5183496,82.0355984 16.8830985,80.3362232 19.3853455,77.2568449 C21.1222459,75.1198115 23.3925097,73.942866 25.7757909,73.942866 C28.1590721,73.942866 30.4293358,75.1198115 32.1662363,77.2568449 C34.6684832,80.3362232 38.0332322,82.0355984 41.6378954,82.0355984 C45.2425587,82.0355984 48.6073076,80.3362232 51.1095546,77.2568449 C52.8464551,75.1198115 55.1167188,73.942866 57.5,73.942866 C59.8832812,73.942866 62.1535449,75.1198115 63.8904454,77.2568449 C66.3926924,80.3362232 69.7574413,82.0355984 73.3621046,82.0355984 C76.9667678,82.0355984 80.3315168,80.3362232 82.8337637,77.2568449 C84.5706642,75.1198115 86.8409279,73.942866 89.2242091,73.942866 C91.6074903,73.942866 93.8777541,75.1198115 95.6146545,77.2568449 C98.1169015,80.3362232 101.48165,82.033627 105.086314,82.033627 C108.690977,82.033627 112.055726,80.3362232 114.557973,77.2568449 C115.247974,76.4091287 115.115129,75.1671259 114.264524,74.4830386 M114.557973,96.9711748 C112.055726,100.050553 108.690977,101.747957 105.086314,101.747957 C101.48165,101.747957 98.1169015,100.050553 95.6146545,96.9711748 C93.8777541,94.8341414 91.6074903,93.6571959 89.2242091,93.6571959 C86.8409279,93.6571959 84.5706642,94.8341414 82.8337637,96.9711748 C80.3315168,100.050553 76.9667678,101.749928 73.3621046,101.749928 C69.7574413,101.749928 66.3926924,100.050553 63.8904454,96.9711748 C62.1535449,94.8341414 59.8832812,93.6571959 57.5,93.6571959 C55.1167188,93.6571959 52.8464551,94.8341414 51.1095546,96.9711748 C48.6073076,100.050553 45.2425587,101.749928 41.6378954,101.749928 C38.0332322,101.749928 34.6684832,100.050553 32.1662363,96.9711748 C30.4293358,94.8341414 28.1590721,93.6571959 25.7757909,93.6571959 C23.3925097,93.6571959 21.1222459,94.8341414 19.3853455,96.9711748 C16.8830985,100.050553 13.5183496,101.749928 9.91368631,101.749928 C6.30902305,101.749928 2.94427412,100.050553 0.442027124,96.9711748 C-0.247974424,96.1234586 -0.115129298,94.8814558 0.735476059,94.1973686 C1.59202971,93.5093385 2.83918768,93.6453674 3.52324094,94.4911121 C5.26014139,96.6281455 7.5304051,97.8070624 9.91368631,97.8070624 C12.2969675,97.8070624 14.5672312,96.6281455 16.3041317,94.4911121 C18.8063787,91.4097623 22.1711276,89.71433 25.7757909,89.71433 C29.3804541,89.71433 32.7452031,91.4097623 35.2474501,94.4911121 C36.9843505,96.6281455 39.2546142,97.8070624 41.6378954,97.8070624 C44.0211766,97.8070624 46.2914404,96.6281455 48.0283408,94.4911121 C50.5305878,91.4097623 53.8953367,89.71433 57.5,89.71433 C61.1046633,89.71433 64.4694122,91.4097623 66.9716592,94.4911121 C68.7085596,96.6281455 70.9788234,97.8070624 73.3621046,97.8070624 C75.7453858,97.8070624 78.0156495,96.6281455 79.7525499,94.4911121 C82.2547969,91.4097623 85.6195459,89.71433 89.2242091,89.71433 C92.8288724,89.71433 96.1936213,91.4097623 98.6958683,94.4911121 C100.432769,96.6281455 102.703032,97.805091 105.086314,97.805091 C107.469595,97.805091 109.739859,96.6281455 111.476759,94.4911121 C112.162795,93.6453674 113.409953,93.5093385 114.264524,94.1973686 C115.115129,94.8814558 115.247974,96.1234586 114.557973,96.9711748" id="Stamp"></path>
                </g>
            </g>
        </g>
    </g>
</svg>