<svg xmlns="http://www.w3.org/2000/svg" width="74" height="66" viewBox="0 0 74 66">
  <g fill-rule="evenodd">
    <path d="M67.17 63.568H6.83c-1.884 0-3.42-1.565-3.42-3.506v-40.68c0-1.94 1.536-3.506 3.42-3.506h60.34c1.884 0 3.42 1.565 3.42 3.506v40.68c0 1.942-1.536 3.506-3.42 3.506zm0 2.42c3.23 0 5.84-2.658 5.84-5.926v-40.68c0-3.268-2.61-5.925-5.84-5.925H6.83c-3.23 0-5.84 2.658-5.84 5.925v40.68c0 3.268 2.61 5.925 5.84 5.925h60.34zm-52.97 0h8.41V9.79H12.99v56.198h1.21zm0-2.42l1.21 1.21V11l-1.21 1.21h7.2L20.19 11v53.778l1.21-1.21h-7.2zm38.4 2.42h8.41V9.79H51.39v56.198h1.21zm0-2.42l1.21 1.21V11l-1.21 1.21h7.2L58.59 11v53.778l1.21-1.21h-7.2zM35.326 50.33L25.26 46.004l.64 1.574 2.83-6.835-1.594.65 10.067 4.324-.64-1.574-2.832 6.836 1.596-.65zm-.955 2.223l1.127.484.47-1.133 2.83-6.835.458-1.104-1.097-.472L28.09 39.17l-1.125-.485-.47 1.132-2.83 6.835-.458 1.103 1.097.47 10.067 4.328zm-5.78-18.33V42.014l.732.315 7.88 3.388-.64-1.575-.76 1.838-.694 1.674H49.01V33.012H28.59v1.21zm2.42 0l-1.21 1.21h18l-1.21-1.21v12.22l1.21-1.208H36.918l1.118 1.673.762-1.84.457-1.102-1.097-.47-7.88-3.388.732 1.11v-6.996zm14.377 1.092l2.933-1.395 1.077-.512-.497-1.084-4.157-9.068-.51-1.115-1.11.528-13.353 6.35-1.078.513.497 1.085 1.885 4.11.323.707H45.14l.247-.117zm-1.04-2.185l.52-.117H32.175l1.1.705-1.885-4.11-.582 1.595 13.355-6.35-1.62-.59 4.158 9.07.58-1.598-2.932 1.395zM26.21 14.667v-1.223c0-6.076 4.846-11.012 10.79-11.012 5.944 0 10.79 4.936 10.79 11.012v1.223l1.21-1.21H25l1.21 1.21zm-2.42 0v1.21h26.42v-2.433C50.21 6.042 44.29.014 37 .014c-7.29 0-13.21 6.028-13.21 13.43v1.223zm21.62 0v-1.223c0-4.696-3.777-8.542-8.41-8.542s-8.41 3.846-8.41 8.542v2.433h16.82v-1.21zm-2.42 0l1.21-1.21H29.8l1.21 1.21v-1.223c0-3.37 2.703-6.123 5.99-6.123 3.287 0 5.99 2.754 5.99 6.124v1.223z"/>
    <path d="M73.01 23.05v-3.668c0-3.268-2.61-5.925-5.84-5.925h-5.042l.25 1.418c.833 4.762 4.516 8.513 9.206 9.366l1.426.26v-1.45zm-2.42 0l1.426-1.19c-3.686-.67-6.596-3.633-7.257-7.402l-1.192 1.418h3.602c1.885 0 3.42 1.564 3.42 3.506v3.67zm2.42 37.012v-5.118l-1.426.26c-4.69.852-8.373 4.603-9.207 9.365l-.25 1.417h5.043c3.23 0 5.84-2.657 5.84-5.925zm-2.42 0c0 1.942-1.535 3.506-3.42 3.506h-3.602l1.19 1.418c.662-3.77 3.572-6.733 7.258-7.403l-1.426-1.19v3.67zM2.416 24.242c4.69-.854 8.373-4.605 9.207-9.367l.25-1.418H6.83c-3.23 0-5.84 2.657-5.84 5.925V24.5l1.426-.26zm-.432-2.38l1.426 1.19v-3.67c0-1.942 1.535-3.506 3.42-3.506h3.602l-1.19-1.418c-.662 3.77-3.572 6.733-7.258 7.403zM.99 56.39v3.67c0 3.268 2.61 5.925 5.84 5.925h5.042l-.25-1.418c-.833-4.763-4.516-8.514-9.206-9.367l-1.426-.26v1.45zm2.42 0l-1.426 1.192c3.686.67 6.596 3.633 7.257 7.403l1.192-1.42H6.83c-1.885 0-3.42-1.563-3.42-3.504v-3.67z"/>
  </g>
</svg>