<svg xmlns="http://www.w3.org/2000/svg" width="72" height="65" viewBox="0 0 72 65">
  <g fill-rule="evenodd">
    <path d="M61.388 45.227c2.47-2.176 3.91-5.28 3.91-8.612 0-6.38-5.247-11.545-11.712-11.545s-11.712 5.165-11.712 11.545c0 3.332 1.44 6.436 3.91 8.612l-.393-.87V64.77l1.976-1.943 7.034-6.923h-1.628l7.035 6.923 1.974 1.943V44.356l-.392.87zm-1.534-1.742l-.394.347V62l1.975-.827L54.4 54.25l-.814-.8-.814.8-7.034 6.923 1.974.827V43.832l-.393-.347c-1.977-1.74-3.125-4.213-3.125-6.87 0-5.09 4.2-9.224 9.39-9.224 5.193 0 9.393 4.135 9.393 9.225 0 2.657-1.148 5.13-3.124 6.87zM66.47 25.077v-1.154c0-.64-.52-1.16-1.16-1.16-.64 0-1.16.52-1.16 1.16v1.154c0 .64.52 1.16 1.16 1.16.64 0 1.16-.52 1.16-1.16zm0-7.885v-2.707c0-.64-.52-1.16-1.16-1.16-.64 0-1.16.52-1.16 1.16v2.707c0 .64.52 1.16 1.16 1.16.64 0 1.16-.52 1.16-1.16zm0-9.423V5.454H64.14c-.64 0-1.16.52-1.16 1.16 0 .64.52 1.16 1.16 1.16h1.172v-1.16h-1.16V7.77c0 .64.52 1.16 1.16 1.16.64 0 1.16-.52 1.16-1.16zm-8.32-2.315h-2.37c-.64 0-1.16.52-1.16 1.16 0 .64.52 1.16 1.16 1.16h2.37c.642 0 1.16-.52 1.16-1.16 0-.64-.518-1.16-1.16-1.16zm-8.294 0h-2.37c-.642 0-1.16.52-1.16 1.16 0 .64.518 1.16 1.16 1.16h2.37c.64 0 1.16-.52 1.16-1.16 0-.64-.52-1.16-1.16-1.16zm-8.296 0h-2.37c-.642 0-1.16.52-1.16 1.16 0 .64.518 1.16 1.16 1.16h2.37c.64 0 1.16-.52 1.16-1.16 0-.64-.52-1.16-1.16-1.16zm-8.296 0h-2.37c-.64 0-1.16.52-1.16 1.16 0 .64.52 1.16 1.16 1.16h2.37c.64 0 1.16-.52 1.16-1.16 0-.64-.52-1.16-1.16-1.16zm-8.295 0h-2.372c-.64 0-1.16.52-1.16 1.16 0 .64.52 1.16 1.16 1.16h2.37c.642 0 1.16-.52 1.16-1.16 0-.64-.518-1.16-1.16-1.16zm-8.297 0h-2.37c-.64 0-1.16.52-1.16 1.16 0 .64.52 1.16 1.16 1.16h2.37c.64 0 1.16-.52 1.16-1.16 0-.64-.52-1.16-1.16-1.16zm-8.81 0H5.53V7.77c0 .64.52 1.16 1.16 1.16.64 0 1.16-.52 1.16-1.16V6.614H6.69v1.16h1.172c.64 0 1.16-.52 1.16-1.16 0-.64-.52-1.16-1.16-1.16zm-2.334 8.258v2.392c0 .64.52 1.16 1.16 1.16.64 0 1.16-.52 1.16-1.16v-2.392c0-.64-.52-1.16-1.16-1.16-.64 0-1.16.52-1.16 1.16zm0 8.37v2.392c0 .64.52 1.16 1.16 1.16.64 0 1.16-.52 1.16-1.16v-2.392c0-.64-.52-1.16-1.16-1.16-.64 0-1.16.52-1.16 1.16zm0 8.37v2.39c0 .642.52 1.162 1.16 1.162.64 0 1.16-.52 1.16-1.16v-2.392c0-.64-.52-1.16-1.16-1.16-.64 0-1.16.52-1.16 1.16zm0 8.37v2.39c0 .642.52 1.162 1.16 1.162.64 0 1.16-.52 1.16-1.16v-2.392c0-.64-.52-1.16-1.16-1.16-.64 0-1.16.52-1.16 1.16zm0 8.177v2.314H7.86c.64 0 1.16-.52 1.16-1.16 0-.64-.52-1.16-1.16-1.16H6.69v1.16h1.16V47c0-.64-.52-1.16-1.16-1.16-.64 0-1.16.52-1.16 1.16zm8.194 2.314h2.32c.642 0 1.16-.52 1.16-1.16 0-.64-.518-1.16-1.16-1.16h-2.32c-.64 0-1.16.52-1.16 1.16 0 .64.52 1.16 1.16 1.16zm8.123 0h2.32c.64 0 1.16-.52 1.16-1.16 0-.64-.52-1.16-1.16-1.16h-2.32c-.64 0-1.16.52-1.16 1.16 0 .64.52 1.16 1.16 1.16zm8.122 0h2.32c.64 0 1.16-.52 1.16-1.16 0-.64-.52-1.16-1.16-1.16h-2.32c-.64 0-1.16.52-1.16 1.16 0 .64.52 1.16 1.16 1.16zm8.375 0h1.172c.64 0 1.16-.52 1.16-1.16 0-.64-.52-1.16-1.16-1.16h-1.172c-.64 0-1.16.52-1.16 1.16 0 .64.52 1.16 1.16 1.16z"/>
    <path d="M2 53.93H47.712v-9.59l-1.928.87c2.137 1.887 4.887 2.95 7.802 2.95s5.665-1.063 7.803-2.95l-1.93-.87v9.59H71.16V.84H.84V53.93H2zm1.16-1.16V2L2 3.16h68L68.84 2v50.77L70 51.61h-9.38l1.16 1.16V41.767l-1.927 1.702c-1.718 1.517-3.924 2.37-6.267 2.37-2.343 0-4.55-.853-6.266-2.37l-1.93-1.702V52.77l1.162-1.16H2l1.16 1.16z"/>
    <path d="M18.426 12.385v20.77c0 .64.52 1.16 1.16 1.16.64 0 1.16-.52 1.16-1.16v-20.77c0-.64-.52-1.16-1.16-1.16-.64 0-1.16.52-1.16 1.16z"/>
    <path d="M19.586 32.263c1.74 0 3.357-.755 4.462-2.04 1.523-1.773 1.177-4.47-.69-5.9l-6.132-4.694c-.83-.635-.98-1.803-.34-2.545.666-.776 1.642-1.232 2.7-1.232 1.953 0 3.53 1.55 3.53 3.455 0 .64.52 1.16 1.16 1.16.64 0 1.16-.52 1.16-1.16 0-3.194-2.623-5.776-5.85-5.776-1.74 0-3.357.755-4.462 2.04-1.523 1.773-1.177 4.47.69 5.9l6.133 4.694c.83.634.978 1.802.34 2.544-.666.776-1.644 1.232-2.7 1.232-1.954 0-3.53-1.55-3.53-3.455 0-.64-.52-1.16-1.16-1.16-.64 0-1.16.52-1.16 1.16 0 3.194 2.623 5.776 5.85 5.776zM30.138 18.16h26.965c.64 0 1.16-.52 1.16-1.16 0-.64-.52-1.16-1.16-1.16H30.138c-.64 0-1.16.52-1.16 1.16 0 .64.52 1.16 1.16 1.16zm0 6.923h12.896c.64 0 1.16-.52 1.16-1.16 0-.64-.52-1.16-1.16-1.16H30.138c-.64 0-1.16.52-1.16 1.16 0 .64.52 1.16 1.16 1.16zm0 6.924h9.38c.64 0 1.16-.52 1.16-1.16 0-.642-.52-1.16-1.16-1.16h-9.38c-.64 0-1.16.518-1.16 1.16 0 .64.52 1.16 1.16 1.16zm-16.414 8.076h24.62c.642 0 1.16-.52 1.16-1.16 0-.64-.518-1.16-1.16-1.16h-24.62c-.64 0-1.16.52-1.16 1.16 0 .64.52 1.16 1.16 1.16z"/>
  </g>
</svg>