<?xml version="1.0" encoding="UTF-8" standalone="no"?>
<svg width="102px" height="93px" viewBox="0 0 102 93" version="1.1" xmlns="http://www.w3.org/2000/svg" xmlns:xlink="http://www.w3.org/1999/xlink">
    <!-- Generator: Sketch 3.7.2 (28276) - http://www.bohemiancoding.com/sketch -->
    <title>Luggage</title>
    <desc>Created with Sketch.</desc>
    <defs></defs>
    <g id="Page-1" stroke="none" stroke-width="1" fill="none" fill-rule="evenodd">
        <g id="Luggage">
            <g id="Group">
                <g transform="translate(2.000000, 1.000000)" stroke="#827BAB" stroke-width="3.3869">
                    <path d="M91.2,89.4 L6.6,89.4 C3,89.4 0.1,86.5 0.1,82.8 L0.1,26.1 C0.1,22.5 3,19.5 6.6,19.5 L91.2,19.5 C94.8,19.5 97.7,22.4 97.7,26.1 L97.7,82.8 C97.7,86.4 94.8,89.4 91.2,89.4 L91.2,89.4 Z" id="Shape"></path>
                    <path d="M97.7,31.2 L97.7,26.1 C97.7,22.5 94.8,19.5 91.2,19.5 L86.1,19.5 C87.2,25.5 91.9,30.1 97.7,31.2 L97.7,31.2 Z" id="Shape"></path>
                    <path d="M97.7,82.8 L97.7,77.7 C91.8,78.8 87.2,83.4 86.2,89.4 L91.3,89.4 C94.8,89.4 97.7,86.4 97.7,82.8 L97.7,82.8 Z" id="Shape"></path>
                    <path d="M0.1,31.2 C6,30.1 10.6,25.5 11.6,19.5 L6.5,19.5 C2.9,19.5 0,22.4 0,26.1 L0,31.2 L0.1,31.2 L0.1,31.2 Z" id="Shape"></path>
                    <path d="M0.1,77.7 L0.1,82.8 C0.1,86.4 3,89.4 6.6,89.4 L11.7,89.4 C10.6,83.4 6,78.7 0.1,77.7 L0.1,77.7 Z" id="Shape"></path>
                    <path d="M32.1,19.5 L32.1,17.8 C32.1,8.4 39.7,0.8 48.9,0.8 C58.2,0.8 65.7,8.4 65.7,17.8 L65.7,19.5 L32.1,19.5 L32.1,19.5 Z" id="Shape"></path>
                    <path d="M59,19.5 L59,17.8 C59,12.2 54.5,7.6 48.9,7.6 C43.3,7.6 38.8,12.2 38.8,17.8 L38.8,19.5 L59,19.5 L59,19.5 Z" id="Shape"></path>
                </g>
                <g>
                    <g transform="translate(18.000000, 15.000000)" stroke="#827BAB" stroke-width="3.3869">
                        <rect id="Rectangle-path" x="0.9" y="0.4" width="10.1" height="75"></rect>
                        <rect id="Rectangle-path" x="54.8" y="0.4" width="10.1" height="75"></rect>
                        <polygon id="Shape" points="29.9 56.8 15.8 50.7 19.7 41.2 33.9 47.2"></polygon>
                        <polygon id="Shape" points="22.8 32.8 22.8 42.5 33.9 47.2 32.8 49.8 48.1 49.8 48.1 32.8"></polygon>
                        <polygon id="Shape" points="44 32.8 48.1 30.8 42.2 18.2 23.5 27 26.1 32.8"></polygon>
                    </g>
                    <rect id="Rectangle-path" x="0.4" y="0.1" width="101" height="92"></rect>
                </g>
            </g>
        </g>
    </g>
</svg>