<svg xmlns="http://www.w3.org/2000/svg" width="115" height="69" viewBox="0 0 115 69"><path fill-rule="evenodd" d="M114.265 43.707c-.855-.69-2.102-.552-2.788.29-1.737 2.138-4.007 3.315-6.39 3.315-2.384 0-4.654-1.177-6.39-3.314-2.503-3.08-5.868-4.774-9.473-4.774-3.604 0-6.97 1.695-9.47 4.774-1.738 2.137-4.01 3.316-6.392 3.316-2.383 0-4.653-1.18-6.39-3.316-2.503-3.08-5.867-4.774-9.472-4.774-3.605 0-6.97 1.695-9.472 4.774-1.737 2.137-4.007 3.316-6.39 3.316s-4.654-1.18-6.39-3.316c-2.503-3.08-5.868-4.774-9.472-4.774-3.605 0-6.97 1.695-9.472 4.774-1.737 2.137-4.007 3.316-6.39 3.316-2.384 0-4.654-1.18-6.39-3.316-.685-.843-1.932-.98-2.79-.29-.85.683-.982 1.925-.292 2.77 2.502 3.082 5.867 4.78 9.472 4.78 3.604 0 6.97-1.698 9.47-4.78 1.738-2.137 4.01-3.312 6.392-3.312 2.383 0 4.653 1.175 6.39 3.313 2.502 3.08 5.867 4.777 9.472 4.777 3.605 0 6.97-1.697 9.472-4.778 1.736-2.14 4.007-3.314 6.39-3.314s4.654 1.175 6.39 3.313c2.503 3.08 5.867 4.777 9.472 4.777 3.605 0 6.97-1.697 9.472-4.778 1.737-2.14 4.007-3.314 6.39-3.314s4.654 1.175 6.39 3.313c2.503 3.08 5.868 4.775 9.472 4.775 3.605 0 6.97-1.695 9.472-4.776.69-.847.557-2.09-.293-2.773m0 17.743c-.855-.69-2.102-.552-2.788.29-1.737 2.138-4.007 3.315-6.39 3.315-2.384 0-4.654-1.177-6.39-3.314-2.503-3.078-5.868-4.773-9.473-4.773-3.604 0-6.97 1.695-9.47 4.774-1.738 2.138-4.01 3.317-6.392 3.317-2.383 0-4.653-1.18-6.39-3.316-2.503-3.078-5.867-4.773-9.472-4.773-3.605 0-6.97 1.695-9.472 4.774-1.737 2.138-4.007 3.317-6.39 3.317s-4.654-1.18-6.39-3.316c-2.503-3.078-5.868-4.773-9.472-4.773-3.605 0-6.97 1.695-9.472 4.774-1.737 2.138-4.007 3.317-6.39 3.317-2.384 0-4.654-1.18-6.39-3.316-.685-.842-1.932-.98-2.79-.29-.85.684-.982 1.926-.292 2.77C2.944 67.304 6.31 69 9.914 69c3.604 0 6.97-1.697 9.47-4.78 1.738-2.136 4.01-3.31 6.392-3.31 2.383 0 4.653 1.174 6.39 3.31 2.502 3.083 5.867 4.78 9.472 4.78 3.605 0 6.97-1.697 9.472-4.78 1.736-2.136 4.007-3.31 6.39-3.31s4.654 1.174 6.39 3.31c2.503 3.083 5.867 4.78 9.472 4.78 3.605 0 6.97-1.697 9.472-4.78 1.737-2.136 4.007-3.31 6.39-3.31s4.654 1.174 6.39 3.31c2.503 3.083 5.868 4.778 9.472 4.778 3.605 0 6.97-1.695 9.472-4.777.69-.844.557-2.086-.293-2.77m0-56.967c-.855-.688-2.102-.552-2.788.294-1.737 2.137-4.007 3.314-6.39 3.314-2.384 0-4.654-1.176-6.39-3.313C96.193 1.695 92.828 0 89.223 0c-3.604 0-6.97 1.695-9.47 4.777-1.738 2.137-4.01 3.316-6.392 3.316-2.383 0-4.653-1.18-6.39-3.316C64.47 1.695 61.105 0 57.5 0c-3.605 0-6.97 1.695-9.472 4.777-1.737 2.137-4.007 3.316-6.39 3.316s-4.654-1.18-6.39-3.316C32.744 1.695 29.38 0 25.775 0c-3.605 0-6.97 1.695-9.472 4.777-1.737 2.137-4.007 3.316-6.39 3.316-2.384 0-4.654-1.18-6.39-3.316-.685-.846-1.932-.982-2.79-.294-.85.684-.982 1.926-.292 2.774 2.502 3.08 5.867 4.78 9.472 4.78 3.604 0 6.97-1.7 9.47-4.78 1.738-2.137 4.01-3.314 6.392-3.314 2.383 0 4.653 1.177 6.39 3.314 2.502 3.08 5.867 4.78 9.472 4.78 3.605 0 6.97-1.7 9.472-4.78 1.736-2.137 4.007-3.314 6.39-3.314s4.654 1.177 6.39 3.314c2.503 3.08 5.867 4.78 9.472 4.78 3.605 0 6.97-1.7 9.472-4.78 1.737-2.137 4.007-3.314 6.39-3.314s4.654 1.177 6.39 3.314c2.503 3.08 5.868 4.777 9.472 4.777 3.605 0 6.97-1.698 9.472-4.777.69-.848.557-2.09-.293-2.774m.293 22.488c-2.502 3.08-5.867 4.778-9.472 4.778-3.604 0-6.97-1.697-9.47-4.777-1.738-2.136-4.01-3.313-6.392-3.313-2.383 0-4.653 1.177-6.39 3.314-2.502 3.08-5.867 4.78-9.472 4.78-3.605 0-6.97-1.7-9.472-4.78-1.736-2.136-4.007-3.313-6.39-3.313s-4.654 1.177-6.39 3.314c-2.503 3.08-5.867 4.78-9.472 4.78-3.605 0-6.97-1.7-9.472-4.78-1.737-2.136-4.007-3.313-6.39-3.313s-4.654 1.177-6.39 3.314c-2.503 3.08-5.868 4.78-9.472 4.78-3.605 0-6.97-1.7-9.472-4.78-.69-.847-.557-2.09.293-2.773.857-.688 2.104-.552 2.788.294 1.737 2.138 4.007 3.317 6.39 3.317 2.384 0 4.654-1.18 6.39-3.316 2.503-3.08 5.868-4.776 9.473-4.776 3.604 0 6.97 1.696 9.47 4.777 1.738 2.138 4.01 3.317 6.392 3.317 2.383 0 4.653-1.18 6.39-3.316 2.503-3.08 5.867-4.776 9.472-4.776 3.605 0 6.97 1.696 9.472 4.777 1.737 2.138 4.007 3.317 6.39 3.317s4.654-1.18 6.39-3.316c2.503-3.08 5.868-4.776 9.472-4.776 3.605 0 6.97 1.696 9.472 4.777 1.737 2.138 4.007 3.315 6.39 3.315 2.384 0 4.654-1.177 6.39-3.314.687-.845 1.934-.98 2.79-.293.85.684.982 1.926.292 2.774"/></svg>