<svg xmlns="http://www.w3.org/2000/svg" viewBox="0 0 29 36"><path fill="#FFF" fill-rule="evenodd" d="M15.757 28.685h-2.84v5.085c0 1.17-.868 2.12-1.94 2.12-1.068 0-1.933-.95-1.933-2.12v-5.085H6.648c-.734 0-1.328-.653-1.328-1.458V12.175c4.03-.016 13.43-.016 18.03 0v15.052c0 .805-.593 1.458-1.33 1.458h-2.39v5.085c0 1.17-.866 2.12-1.937 2.12-1.068 0-1.936-.95-1.936-2.12v-5.085zm12.285-5.54c0 1.172-.865 2.122-1.935 2.122s-1.938-.95-1.938-2.12v-9.284c0-1.173.866-2.12 1.937-2.12 1.07 0 1.935.947 1.935 2.12v9.283zm-23.555 0c0 1.172-.868 2.122-1.935 2.122-1.07 0-1.937-.95-1.937-2.12v-9.284c0-1.173.865-2.12 1.937-2.12 1.067 0 1.935.947 1.935 2.12v9.283zM18.7 3.48c2.57 1.54 4.395 4.4 4.738 7.753H5.23c.34-3.318 2.134-6.153 4.66-7.705L8.528.612C8.45.447 8.512.247 8.66.162c.15-.085.336-.02.413.145l1.36 2.91c1.185-.616 2.507-.96 3.902-.96 1.363 0 2.657.328 3.82.918L19.692.258c.084-.16.272-.217.417-.122.146.09.196.297.112.456l-1.52 2.886zm-8.473 4.22c.415 0 .755-.37.755-.83 0-.457-.34-.827-.755-.827-.42 0-.76.37-.76.828 0 .46.34.83.76.83zm8.232 0c.42 0 .755-.37.755-.83 0-.457-.337-.827-.756-.827-.42 0-.76.37-.76.828 0 .46.34.83.76.83z"/></svg>