<svg xmlns="http://www.w3.org/2000/svg" viewBox="0 0 46 37"><path fill-rule="evenodd" d="M4.796 29.43H.562v2.54h4.234v1.234c0 1.657 1.343 3 3 3h4.16c1.657 0 3-1.343 3-3V31.97h30.482v-2.54H14.956v-.386c0-1.657-1.343-3-3-3h-4.16c-1.657 0-3 1.343-3 3v.387zm13.547-12.7H.563v2.54h17.78v1.234c0 1.657 1.343 3 3 3h4.16c1.658 0 3-1.343 3-3V19.27H45.44v-2.54H28.504v-.387c0-1.657-1.343-3-3-3h-4.16c-1.658 0-3 1.343-3 3v.387zM31.89 4.03H.563v2.54h31.33v1.233c0 1.657 1.342 3 3 3h4.16c1.656 0 3-1.343 3-3V6.57h3.386V4.03H42.05V3.64c0-1.657-1.342-3-3-3h-4.16c-1.656 0-3 1.343-3 3v.387z"/></svg>