<?xml version="1.0" encoding="UTF-8" standalone="no"?>
<svg width="107px" height="81px" viewBox="0 0 107 81" version="1.1" xmlns="http://www.w3.org/2000/svg" xmlns:xlink="http://www.w3.org/1999/xlink">
    <!-- Generator: Sketch 3.6.1 (26313) - http://www.bohemiancoding.com/sketch -->
    <title>Stamp</title>
    <desc>Created with Sketch.</desc>
    <defs></defs>
    <g id="Page-1" stroke="none" stroke-width="1" fill="none" fill-rule="evenodd">
        <g id="About---Dtop" transform="translate(-665.000000, -1814.000000)" fill="#D7ED1F">
            <g id="Founders" transform="translate(-7.000000, 1235.000000)">
                <g id="Ben" transform="translate(672.000000, 286.000000)">
                    <path d="M103.433333,370.4 L98.0833333,370.4 L100.936667,368.24 C101.7249,367.6442 101.883617,366.5156 101.293333,365.72 C100.70305,364.9244 99.5884667,364.766 98.7966667,365.36 L92.1394833,370.4 L85.6,370.4 L88.4533333,368.24 C89.2415667,367.6442 89.4002833,366.5156 88.81,365.72 C88.2197167,364.9244 87.1051333,364.766 86.3133333,365.36 L79.65615,370.4 L73.1166667,370.4 L75.97,368.24 C76.7582333,367.6442 76.91695,366.5156 76.3266667,365.72 C75.7381667,364.9244 74.6218,364.766 73.83,365.36 L67.1728167,370.4 L60.6333333,370.4 L63.4866667,368.24 C64.2749,367.6442 64.4336167,366.5156 63.8433333,365.72 C63.2548333,364.9244 62.1384667,364.766 61.3466667,365.36 L54.6894833,370.4 L48.15,370.4 L51.0033333,368.24 C51.7915667,367.6442 51.9502833,366.5156 51.36,365.72 C50.7715,364.9244 49.6551333,364.766 48.8633333,365.36 L42.20615,370.4 L35.6666667,370.4 L38.52,368.24 C39.3082333,367.6442 39.46695,366.5156 38.8766667,365.72 C38.2881667,364.9244 37.1718,364.766 36.38,365.36 L29.7228167,370.4 L23.1833333,370.4 L26.0366667,368.24 C26.8249,367.6442 26.9836167,366.5156 26.3933333,365.72 C25.80305,364.9244 24.6884667,364.766 23.8966667,365.36 L17.2394833,370.4 L10.7,370.4 L13.5533333,368.24 C14.3415667,367.6442 14.5002833,366.5156 13.91,365.72 C13.3197167,364.9244 12.2051333,364.766 11.4133333,365.36 L4.75615,370.4 L3.56666667,370.4 L3.56666667,296.6 L8.91666667,296.6 L6.06333333,298.76 C5.2751,299.3558 5.11638333,300.4844 5.70666667,301.28 C6.0562,301.7516 6.59298333,302 7.13511667,302 C7.50605,302 7.88233333,301.883 8.20333333,301.64 L14.8605167,296.6 L21.4,296.6 L18.5466667,298.76 C17.7584333,299.3558 17.5997167,300.4844 18.19,301.28 C18.5395333,301.7516 19.0763167,302 19.61845,302 C19.9893833,302 20.3656667,301.883 20.6866667,301.64 L27.34385,296.6 L33.8833333,296.6 L31.03,298.76 C30.2417667,299.3558 30.08305,300.4844 30.6733333,301.28 C31.0228667,301.7516 31.55965,302 32.1017833,302 C32.4727167,302 32.849,301.883 33.17,301.64 L39.8271833,296.6 L46.3666667,296.6 L43.5133333,298.76 C42.7251,299.3558 42.5663833,300.4844 43.1566667,301.28 C43.5062,301.7516 44.0429833,302 44.5851167,302 C44.95605,302 45.3323333,301.883 45.6533333,301.64 L52.3105167,296.6 L58.85,296.6 L55.9966667,298.76 C55.2084333,299.3558 55.0497167,300.4844 55.64,301.28 C55.9895333,301.7516 56.5263167,302 57.06845,302 C57.4393833,302 57.8156667,301.883 58.1366667,301.64 L64.79385,296.6 L71.3333333,296.6 L68.48,298.76 C67.6917667,299.3558 67.53305,300.4844 68.1233333,301.28 C68.4728667,301.7516 69.00965,302 69.5517833,302 C69.9227167,302 70.299,301.883 70.62,301.64 L77.2771833,296.6 L83.8166667,296.6 L80.9633333,298.76 C80.1751,299.3558 80.0163833,300.4844 80.6066667,301.28 C80.9562,301.7516 81.4929833,302 82.0351167,302 C82.40605,302 82.7823333,301.883 83.1033333,301.64 L89.7605167,296.6 L96.3,296.6 L93.4466667,298.76 C92.6584333,299.3558 92.4997167,300.4844 93.09,301.28 C93.4395333,301.7516 93.9763167,302 94.51845,302 C94.8893833,302 95.2656667,301.883 95.5866667,301.64 L102.24385,296.6 L103.433333,296.6 L103.433333,370.4 Z M0,374 L107,374 L107,293 L0,293 L0,374 Z M30.3166667,316.4 C30.3166667,315.4046 29.5177333,314.6 28.5333333,314.6 L14.2666667,314.6 C13.2822667,314.6 12.4833333,315.4046 12.4833333,316.4 C12.4833333,317.3954 13.2822667,318.2 14.2666667,318.2 L28.5333333,318.2 C29.5177333,318.2 30.3166667,317.3954 30.3166667,316.4 L30.3166667,316.4 Z M51.7166667,334.4 C51.7166667,333.4046 50.9177333,332.6 49.9333333,332.6 L14.2666667,332.6 C13.2822667,332.6 12.4833333,333.4046 12.4833333,334.4 C12.4833333,335.3954 13.2822667,336.2 14.2666667,336.2 L49.9333333,336.2 C50.9177333,336.2 51.7166667,335.3954 51.7166667,334.4 L51.7166667,334.4 Z M51.7166667,325.4 C51.7166667,324.4046 50.9177333,323.6 49.9333333,323.6 L14.2666667,323.6 C13.2822667,323.6 12.4833333,324.4046 12.4833333,325.4 C12.4833333,326.3954 13.2822667,327.2 14.2666667,327.2 L49.9333333,327.2 C50.9177333,327.2 51.7166667,326.3954 51.7166667,325.4 L51.7166667,325.4 Z M80.25,329 L90.95,329 L90.95,318.2 L80.25,318.2 L80.25,329 Z M94.5166667,332.6 L76.6833333,332.6 L76.6833333,314.6 L94.5166667,314.6 L94.5166667,332.6 Z" id="Stamp"></path>
                </g>
            </g>
        </g>
    </g>
</svg>