<svg xmlns="http://www.w3.org/2000/svg" width="28" height="24" viewBox="0 0 28 24"><path fill-rule="evenodd" d="M13.637 22.205c-6.553 0-11.883-3.645-11.883-8.124 0-.98.255-1.92.723-2.792 2.52 2.335 6.635 3.74 11.16 3.74 4.504 0 8.636-1.41 11.16-3.742.468.872.724 1.813.724 2.795 0 4.48-5.33 8.125-11.883 8.125M5.952 2.15c1.288-.532 2.704-.533 3.99-.002 1.037.428 1.89 1.16 2.46 2.098-1.23.08-2.41.28-3.524.58-.043-.682-.46-1.315-1.132-1.602-.95-.405-2.05.035-2.457.985-.284.66-.153 1.396.275 1.917-1.023.546-1.937 1.192-2.714 1.92-.516-2.407.744-4.92 3.102-5.897m11.402-.002c1.288-.532 2.704-.53 3.99.002 2.364.98 3.625 3.503 3.098 5.913-.787-.74-1.717-1.397-2.758-1.95.428-.53.55-1.276.25-1.94-.427-.94-1.535-1.358-2.476-.934-.65.292-1.053.912-1.098 1.577-1.097-.294-2.26-.49-3.466-.57.57-.94 1.424-1.67 2.46-2.1m-3.717 3.81c4.283 0 8.044 1.556 10.136 3.886-2.16 2.108-6.018 3.435-10.136 3.435-4.14 0-7.977-1.324-10.135-3.435 2.09-2.33 5.852-3.887 10.135-3.887M25.79 9.602c1.458-3.536-.23-7.6-3.775-9.068-3.062-1.268-6.53-.183-8.365 2.42-.753-1.07-1.796-1.91-3.038-2.423C8.894-.18 7-.176 5.282.535 1.744 2 .054 6.05 1.498 9.582c-.96 1.35-1.5 2.88-1.5 4.5 0 5.443 6.118 9.872 13.637 9.872 7.52 0 13.637-4.43 13.637-9.873 0-1.61-.536-3.133-1.485-4.478"/></svg>