<?xml version="1.0" encoding="UTF-8"?>
<svg xmlns="http://www.w3.org/2000/svg" xmlns:xlink="http://www.w3.org/1999/xlink" version="1.2" >
<font id="DINCond-Bold">
<font-face  font-family="DINCond-Bold" units-per-em="1000" ascent="712" descent="-185" font-style="normal" font-weight="500" font-stretch="normal" cap-height="712" x-height="527" underline-position="-115" underline-thickness="77" />
<missing-glyph  horiz-adv-x="200" d="" />
<glyph glyph-name="NULL" d="" />
<glyph glyph-name="CR" unicode="&#xd;" horiz-adv-x="250" d="" />
<glyph glyph-name="space" unicode="&#x20;" horiz-adv-x="179" d="" />
<glyph glyph-name="exclam" unicode="&#x21;" horiz-adv-x="257" d="M193 200 L193 712 L87 712 L87 200 L193 200 Z M202 0 L202 123 L78 123 L78 0 L202 0 Z " />
<glyph glyph-name="quotedbl" unicode="&#x22;" horiz-adv-x="437" d="M174 511 L174 712 L72 712 L72 511 L174 511 Z M364 511 L364 712 L263 712 L263 511 L364 511 Z " />
<glyph glyph-name="numbersign" unicode="&#x23;" horiz-adv-x="608" d="M561 428 L561 529 L493 529 L519 712 L409 712 L382 529 L275 529 L302 712 L191 712 L165 529 L77 529 L78 428 L149 428 L131 301 L47 301 L47 201 L115 201 L86 0 L196 0 L225 201 L332 201 L303 0 L414 0 L443 201 L530 201 L530 301 L459 301 L477 428 L561 428 Z M367 428 L348 301 L241 301 L260 428 L367 428 Z " />
<glyph glyph-name="dollar" unicode="&#x24;" horiz-adv-x="449" d="M407 197 C407 317 385 362 299 397 L215 431 C165 451 156 469 156 527 C156 558 162 582 175 597 C186 609 200 617 223 617 C247 617 263 609 273 596 C288 577 290 552 290 520 L402 520 C402 588 389 639 352 675 C332 694 306 707 273 713 L273 806 L174 806 L174 712 C146 706 122 693 102 675 C63 640 44 588 44 524 C44 414 71 375 143 345 L228 310 C283 288 295 269 295 193 C295 155 290 131 275 114 C264 101 248 94 222 94 C197 94 180 102 170 113 C154 131 150 155 150 193 L38 193 C38 118 49 74 83 40 C105 18 135 3 174 -3 L174 -114 L273 -114 L273 -2 C311 5 341 20 361 40 C397 75 407 124 407 197 L407 197 Z " />
<glyph glyph-name="percent" unicode="&#x25;" horiz-adv-x="732" d="M685 112 L685 245 C685 324 626 365 558 365 C490 365 431 324 431 245 L431 112 C431 33 490 -8 558 -8 C626 -8 685 33 685 112 L685 112 Z M301 467 L301 600 C301 679 242 720 174 720 C106 720 47 679 47 600 L47 467 C47 388 106 347 174 347 C242 347 301 388 301 467 L301 467 Z M532 712 L450 712 L202 0 L284 0 L532 712 Z M214 469 C214 438 198 424 174 424 C150 424 133 438 133 469 L133 598 C133 629 150 643 174 643 C198 643 214 629 214 598 L214 469 Z M598 114 C598 83 582 69 558 69 C534 69 518 83 518 114 L518 243 C518 274 534 288 558 288 C582 288 598 274 598 243 L598 114 Z " />
<glyph glyph-name="ampersand" unicode="&#x26;" horiz-adv-x="499" d="M497 0 L404 149 C436 206 462 294 465 374 L374 374 C371 327 361 277 345 243 L260 374 C316 432 351 486 351 570 C351 653 304 719 207 719 C128 719 65 665 65 560 C65 500 94 452 140 390 C72 321 34 256 34 175 C34 61 104 -8 201 -8 C266 -8 308 19 347 63 L386 0 L497 0 Z M295 144 C269 107 242 87 210 87 C165 87 133 126 133 182 C133 222 151 262 192 304 L295 144 Z M256 568 C256 520 239 494 207 459 C177 499 160 533 160 564 C160 601 178 624 208 624 C235 624 256 602 256 568 L256 568 Z " />
<glyph glyph-name="quotesingle" unicode="&#x27;" horiz-adv-x="247" d="M174 511 L174 712 L72 712 L72 511 L174 511 Z " />
<glyph glyph-name="parenleft" unicode="&#x28;" horiz-adv-x="265" d="M224 -23 C201 0 182 19 168 44 C158 62 154 90 154 126 L154 586 C154 622 158 650 168 668 C182 693 201 712 224 735 L153 806 C121 774 93 746 72 710 C51 673 48 632 48 592 L48 120 C48 80 51 39 72 2 C92 -33 121 -62 153 -94 L224 -23 Z " />
<glyph glyph-name="parenright" unicode="&#x29;" horiz-adv-x="265" d="M218 120 L218 592 C218 632 214 673 193 710 C173 746 144 774 113 806 L41 735 C64 712 84 693 97 668 C108 650 112 622 112 586 L112 126 C112 90 108 62 97 44 C84 19 64 0 41 -23 L113 -94 C144 -62 174 -33 193 2 C214 39 218 80 218 120 L218 120 Z " />
<glyph glyph-name="asterisk" unicode="&#x2a;" horiz-adv-x="417" d="M374 479 L276 530 L374 581 L336 647 L243 588 L247 714 L170 714 L174 588 L80 647 L43 581 L141 530 L43 479 L80 414 L174 472 L170 346 L247 346 L243 472 L336 414 L374 479 Z " />
<glyph glyph-name="plus" unicode="&#x2b;" horiz-adv-x="457" d="M413 238 L413 339 L279 339 L279 473 L178 473 L178 339 L44 339 L44 238 L178 238 L178 104 L279 104 L279 238 L413 238 Z " />
<glyph glyph-name="comma" unicode="&#x2c;" horiz-adv-x="229" d="M172 -65 L172 124 L57 124 L57 -150 L172 -65 Z " />
<glyph glyph-name="hyphen" unicode="&#x2d;" horiz-adv-x="295" d="M249 238 L249 339 L47 339 L47 238 L249 238 Z " />
<glyph glyph-name="period" unicode="&#x2e;" horiz-adv-x="234" d="M179 0 L179 123 L56 123 L56 0 L179 0 Z " />
<glyph glyph-name="slash" unicode="&#x2f;" horiz-adv-x="298" d="M291 786 L191 786 L6 -74 L106 -74 L291 786 Z " />
<glyph glyph-name="zero" unicode="0" horiz-adv-x="401" d="M359 152 L359 560 C359 617 342 651 314 678 C286 705 245 720 201 720 C157 720 115 705 87 678 C59 651 42 617 42 560 L42 152 C42 95 59 61 87 34 C115 7 157 -8 201 -8 C245 -8 286 7 314 34 C342 61 359 95 359 152 L359 152 Z M253 148 C253 107 230 87 201 87 C172 87 148 107 148 148 L148 564 C148 605 172 625 201 625 C230 625 253 605 253 564 L253 148 Z " />
<glyph glyph-name="one" unicode="1" horiz-adv-x="401" d="M283 0 L283 712 L177 712 L70 626 L70 506 L177 588 L177 0 L283 0 Z " />
<glyph glyph-name="two" unicode="2" horiz-adv-x="401" d="M360 0 L360 95 L160 95 L321 403 C344 447 360 507 360 559 C360 616 341 656 313 682 C284 709 246 720 203 720 C160 720 116 705 88 678 C60 651 44 617 44 560 L44 518 L150 518 L150 564 C150 605 174 625 203 625 C232 625 254 604 254 563 C254 511 241 466 225 436 L47 90 L47 0 L360 0 Z " />
<glyph glyph-name="three" unicode="3" horiz-adv-x="401" d="M361 203 C361 264 358 300 339 334 C330 351 315 365 298 377 C315 388 328 402 337 419 C353 450 355 484 355 532 C355 602 341 648 309 680 C284 705 247 720 200 720 C156 720 118 706 90 679 C62 652 46 616 46 561 L46 518 L152 518 L152 568 C152 606 173 625 200 625 C216 625 227 619 235 609 C248 592 249 561 249 525 C249 488 249 453 233 435 C225 426 214 421 199 421 L164 421 L164 332 L199 332 C217 332 230 326 239 314 C254 294 255 258 255 210 C255 166 253 124 238 105 C230 95 217 87 200 87 C171 87 147 107 147 148 L147 194 L41 194 L41 152 C41 95 57 61 85 34 C113 7 156 -8 200 -8 C244 -8 286 6 314 33 C359 77 361 127 361 203 L361 203 Z " />
<glyph glyph-name="four" unicode="4" horiz-adv-x="401" d="M377 111 L377 206 L328 206 L328 333 L222 333 L222 206 L133 206 L310 712 L207 712 L24 206 L24 111 L222 111 L222 0 L328 0 L328 111 L377 111 Z " />
<glyph glyph-name="five" unicode="5" horiz-adv-x="401" d="M362 240 C362 327 358 393 328 430 C305 459 276 473 232 473 C214 473 196 468 181 460 C167 452 154 439 144 426 L144 617 L354 617 L354 712 L47 712 L47 302 L148 302 L148 317 C148 356 171 378 201 378 C218 378 233 371 242 356 C256 334 256 289 256 230 C256 171 256 116 240 95 C230 81 218 76 201 76 C171 76 148 95 148 138 L148 187 L42 187 L42 152 C42 95 59 60 87 33 C115 6 157 -8 201 -8 C245 -8 286 8 314 36 C361 83 362 146 362 240 L362 240 Z " />
<glyph glyph-name="six" unicode="6" horiz-adv-x="401" d="M361 216 C361 321 351 359 325 392 C302 422 269 436 231 436 C216 436 199 433 187 424 L304 712 L194 712 L69 384 C52 338 40 280 40 216 C40 130 48 89 76 49 C101 13 143 -8 200 -8 C252 -8 299 9 327 49 C350 82 361 121 361 216 L361 216 Z M255 217 C255 174 256 127 239 105 C230 93 217 87 201 87 C186 87 171 93 162 105 C145 128 146 174 146 217 C146 260 145 309 162 331 C171 343 186 349 201 349 C216 349 230 343 239 331 C256 309 255 260 255 217 L255 217 Z " />
<glyph glyph-name="seven" unicode="7" horiz-adv-x="401" d="M365 624 L365 712 L33 712 L33 522 L135 522 L135 617 L259 617 L72 0 L178 0 L365 624 Z " />
<glyph glyph-name="eight" unicode="8" horiz-adv-x="401" d="M361 201 C361 261 357 296 340 327 C330 345 316 359 298 372 C315 384 328 399 337 416 C353 447 356 478 356 527 C356 596 346 643 310 679 C282 707 243 720 200 720 C157 720 119 707 91 679 C55 643 45 596 45 527 C45 478 48 447 64 416 C73 399 86 384 103 372 C85 359 70 345 61 327 C44 296 40 261 40 201 C40 123 45 76 87 34 C115 6 158 -8 201 -8 C244 -8 286 6 314 34 C356 76 361 123 361 201 L361 201 Z M255 206 C255 165 255 124 239 104 C230 93 216 87 201 87 C186 87 171 93 162 104 C146 125 146 165 146 206 C146 251 145 290 162 311 C171 322 186 328 201 328 C216 328 230 322 239 311 C256 290 255 251 255 206 L255 206 Z M250 522 C250 487 252 447 233 429 C225 421 214 417 201 417 C188 417 177 421 169 429 C150 447 151 487 151 522 C151 556 151 593 166 611 C174 621 187 625 201 625 C215 625 227 621 235 611 C250 593 250 556 250 522 L250 522 Z " />
<glyph glyph-name="nine" unicode="9" horiz-adv-x="401" d="M361 496 C361 582 354 623 326 663 C301 699 258 720 201 720 C149 720 103 703 75 663 C52 630 40 591 40 496 C40 391 50 353 76 320 C99 290 133 276 171 276 C186 276 202 279 214 288 L97 0 L207 0 L332 328 C349 374 361 432 361 496 L361 496 Z M255 495 C255 452 256 403 239 381 C230 369 216 363 201 363 C186 363 171 369 162 381 C145 403 146 452 146 495 C146 538 145 585 162 607 C171 619 185 625 201 625 C216 625 230 619 239 607 C256 584 255 538 255 495 L255 495 Z " />
<glyph glyph-name="colon" unicode="&#x3a;" horiz-adv-x="257" d="M202 313 L202 436 L78 436 L78 313 L202 313 Z M202 0 L202 123 L78 123 L78 0 L202 0 Z " />
<glyph glyph-name="semicolon" unicode="&#x3b;" horiz-adv-x="257" d="M198 -65 L198 124 L82 124 L82 -150 L198 -65 Z M202 313 L202 436 L78 436 L78 313 L202 313 Z " />
<glyph glyph-name="less" unicode="&#x3c;" horiz-adv-x="401" d="M367 60 L367 177 L164 292 L367 407 L367 523 L34 329 L34 255 L367 60 Z " />
<glyph glyph-name="equal" unicode="&#x3d;" horiz-adv-x="457" d="M413 326 L413 427 L44 427 L44 326 L413 326 Z M413 145 L413 246 L44 246 L44 145 L413 145 Z " />
<glyph glyph-name="greater" unicode="&#x3e;" horiz-adv-x="401" d="M367 255 L367 329 L34 523 L34 407 L237 292 L34 177 L34 60 L367 255 Z " />
<glyph glyph-name="question" unicode="&#x3f;" horiz-adv-x="426" d="M393 524 C393 594 380 638 345 673 C317 702 276 718 223 718 C169 718 131 697 103 671 C68 638 56 587 56 527 L162 527 C162 555 163 585 181 605 C192 617 206 623 224 623 C243 623 256 616 267 604 C283 586 287 562 287 527 C287 488 283 463 261 434 L202 355 C184 331 171 301 171 269 L171 200 L277 200 L277 257 C277 281 285 302 300 322 L359 401 C383 433 393 469 393 524 L393 524 Z M286 0 L286 123 L162 123 L162 0 L286 0 Z " />
<glyph glyph-name="at" unicode="&#x40;" horiz-adv-x="608" d="M554 0 L554 548 C554 606 536 641 507 669 C479 697 439 712 389 712 L211 712 C161 712 121 697 93 669 C64 641 47 606 47 548 L47 131 C47 64 63 28 105 -13 L182 63 C161 83 153 101 153 136 L153 532 C153 591 181 621 235 621 L365 621 C419 621 448 591 448 532 L448 449 C440 460 428 470 417 476 C401 485 383 490 363 490 C320 490 292 477 268 449 C247 425 238 396 238 335 L238 147 C238 86 247 57 268 33 C292 5 320 -8 363 -8 C382 -8 402 -2 417 7 C430 14 443 28 452 40 L452 0 L554 0 Z M448 148 C448 107 425 87 396 87 C367 87 344 107 344 148 L344 334 C344 375 367 396 396 396 C425 396 448 375 448 334 L448 148 Z " />
<glyph glyph-name="A" unicode="A" horiz-adv-x="468" d="M462 0 L289 712 L180 712 L5 0 L123 0 L151 141 L316 141 L345 0 L462 0 Z M295 242 L173 242 L234 540 L295 242 Z " />
<glyph glyph-name="B" unicode="B" horiz-adv-x="472" d="M423 211 C423 255 420 309 385 347 C375 358 362 367 347 373 C361 379 373 387 384 398 C416 430 421 470 421 518 C421 588 409 635 377 668 C347 698 304 712 238 712 L60 712 L60 0 L237 0 C303 0 347 14 377 45 C411 80 423 130 423 211 L423 211 Z M311 212 C311 129 287 101 226 101 L172 101 L172 323 L226 323 C286 323 311 291 311 212 L311 212 Z M309 515 C309 447 284 418 225 418 L172 418 L172 611 L225 611 C285 611 309 587 309 515 L309 515 Z " />
<glyph glyph-name="C" unicode="C" horiz-adv-x="447" d="M413 189 L301 189 C300 163 296 137 284 119 C274 103 258 93 231 93 C204 93 188 104 178 120 C157 154 153 226 153 356 C153 486 157 558 178 592 C188 608 204 619 231 619 C258 619 273 609 283 593 C295 575 299 550 300 524 L412 524 C410 587 390 641 355 674 C323 704 285 720 231 720 C163 720 123 694 93 660 C40 600 41 495 41 355 C41 215 40 112 93 52 C123 18 163 -8 231 -8 C284 -8 322 8 354 37 C390 70 411 125 413 189 L413 189 Z " />
<glyph glyph-name="D" unicode="D" horiz-adv-x="472" d="M431 356 C431 493 432 594 379 653 C350 686 309 712 241 712 L60 712 L60 0 L241 0 C309 0 350 26 379 59 C432 118 431 219 431 356 L431 356 Z M319 357 C319 233 316 163 295 130 C284 113 265 101 238 101 L172 101 L172 611 L238 611 C265 611 284 599 295 582 C316 549 319 481 319 357 L319 357 Z " />
<glyph glyph-name="E" unicode="E" horiz-adv-x="396" d="M359 0 L359 101 L172 101 L172 308 L333 308 L333 409 L172 409 L172 611 L359 611 L359 712 L60 712 L60 0 L359 0 Z " />
<glyph glyph-name="F" unicode="F" horiz-adv-x="390" d="M359 611 L359 712 L60 712 L60 0 L172 0 L172 308 L333 308 L333 409 L172 409 L172 611 L359 611 Z " />
<glyph glyph-name="G" unicode="G" horiz-adv-x="455" d="M413 190 L413 387 L231 387 L231 295 L301 295 L301 184 C301 135 279 93 231 93 C204 93 188 104 178 120 C157 154 153 226 153 356 C153 486 157 558 178 592 C188 608 204 619 231 619 C291 619 300 563 301 523 L413 523 C411 584 393 636 358 672 C328 702 286 720 231 720 C163 720 123 694 93 660 C40 600 41 496 41 356 C41 216 40 112 93 52 C123 18 163 -8 231 -8 C337 -8 413 61 413 190 L413 190 Z " />
<glyph glyph-name="H" unicode="H" horiz-adv-x="483" d="M423 0 L423 712 L311 712 L311 412 L172 412 L172 712 L60 712 L60 0 L172 0 L172 312 L311 312 L311 0 L423 0 Z " />
<glyph glyph-name="I" unicode="I" horiz-adv-x="232" d="M172 0 L172 712 L60 712 L60 0 L172 0 Z " />
<glyph glyph-name="J" unicode="J" horiz-adv-x="389" d="M335 186 L335 712 L223 712 L223 186 C223 125 189 93 143 93 C117 93 93 107 81 124 L3 49 C37 13 85 -8 143 -8 C206 -8 252 10 286 46 C319 80 335 129 335 186 L335 186 Z " />
<glyph glyph-name="K" unicode="K" horiz-adv-x="469" d="M462 0 L297 417 L440 712 L327 712 L172 377 L172 712 L60 712 L60 0 L172 0 L172 183 L226 293 L341 0 L462 0 Z " />
<glyph glyph-name="L" unicode="L" horiz-adv-x="383" d="M359 0 L359 101 L172 101 L172 712 L60 712 L60 0 L359 0 Z " />
<glyph glyph-name="M" unicode="M" horiz-adv-x="598" d="M538 0 L538 712 L436 712 L299 338 L161 712 L60 712 L60 0 L172 0 L172 439 L267 152 L329 152 L426 444 L426 0 L538 0 Z " />
<glyph glyph-name="N" unicode="N" horiz-adv-x="499" d="M439 0 L439 712 L327 712 L327 289 L160 712 L60 712 L60 0 L172 0 L172 423 L340 0 L439 0 Z " />
<glyph glyph-name="O" unicode="O" horiz-adv-x="462" d="M421 356 C421 496 422 600 369 660 C339 694 299 720 231 720 C163 720 123 694 93 660 C40 600 41 496 41 356 C41 216 40 112 93 52 C123 18 163 -8 231 -8 C299 -8 339 18 369 52 C422 112 421 216 421 356 L421 356 Z M309 356 C309 226 306 154 285 120 C275 104 258 93 231 93 C204 93 188 104 178 120 C157 154 153 226 153 356 C153 486 157 558 178 592 C188 608 204 619 231 619 C258 619 275 608 285 592 C306 558 309 486 309 356 L309 356 Z " />
<glyph glyph-name="P" unicode="P" horiz-adv-x="459" d="M422 496 C422 645 368 712 239 712 L60 712 L60 0 L172 0 L172 278 L239 278 C374 278 422 352 422 496 L422 496 Z M310 495 C310 432 301 379 241 379 L172 379 L172 611 L241 611 C301 611 310 558 310 495 L310 495 Z " />
<glyph glyph-name="Q" unicode="Q" horiz-adv-x="462" d="M451 39 L392 89 C421 151 421 239 421 356 C421 496 422 600 369 660 C339 694 299 720 231 720 C163 720 123 694 93 660 C40 600 41 496 41 356 C41 216 40 112 93 52 C123 18 163 -8 231 -8 C279 -8 314 5 341 26 L399 -23 L451 39 Z M309 356 C309 260 308 206 299 167 L270 191 L218 129 L255 98 C248 94 241 93 231 93 C204 93 188 104 178 120 C156 154 153 225 153 356 C153 487 156 558 178 592 C188 608 204 619 231 619 C258 619 275 608 285 592 C307 558 309 487 309 356 L309 356 Z " />
<glyph glyph-name="R" unicode="R" horiz-adv-x="478" d="M445 0 L339 316 C404 351 422 414 422 502 C422 649 370 712 240 712 L60 712 L60 0 L172 0 L172 292 L235 292 L328 0 L445 0 Z M310 502 C310 443 301 393 241 393 L172 393 L172 611 L241 611 C301 611 310 561 310 502 L310 502 Z " />
<glyph glyph-name="S" unicode="S" horiz-adv-x="442" d="M404 197 C404 317 381 362 296 397 L212 431 C162 451 153 469 153 527 C153 558 159 582 172 597 C183 609 197 617 220 617 C244 617 260 609 270 596 C285 577 287 552 287 520 L399 520 C399 588 386 639 349 675 C320 703 278 718 221 718 C170 718 130 702 99 675 C60 640 41 588 41 524 C41 414 68 375 140 345 L225 310 C280 288 292 269 292 193 C292 155 288 131 273 114 C262 101 245 94 219 94 C194 94 177 102 167 113 C151 131 147 155 147 193 L35 193 C35 118 47 74 81 40 C111 10 157 -7 219 -7 C282 -7 329 12 358 40 C394 75 404 124 404 197 L404 197 Z " />
<glyph glyph-name="T" unicode="T" horiz-adv-x="393" d="M372 611 L372 712 L21 712 L21 611 L140 611 L140 0 L252 0 L252 611 L372 611 Z " />
<glyph glyph-name="U" unicode="U" horiz-adv-x="471" d="M417 175 L417 712 L305 712 L305 169 C305 118 274 93 236 93 C198 93 166 118 166 169 L166 712 L54 712 L54 175 C54 121 72 76 103 44 C137 9 183 -8 236 -8 C289 -8 334 9 368 44 C399 76 417 121 417 175 L417 175 Z " />
<glyph glyph-name="V" unicode="V" horiz-adv-x="437" d="M433 712 L310 712 L218 172 L127 712 L4 712 L160 0 L276 0 L433 712 Z " />
<glyph glyph-name="W" unicode="W" horiz-adv-x="714" d="M710 712 L587 712 L518 172 L419 712 L295 712 L197 172 L127 712 L4 712 L139 0 L256 0 L357 541 L459 0 L576 0 L710 712 Z " />
<glyph glyph-name="X" unicode="X" horiz-adv-x="432" d="M421 0 L277 369 L410 712 L287 712 L216 474 L145 712 L22 712 L152 369 L11 0 L134 0 L216 256 L298 0 L421 0 Z " />
<glyph glyph-name="Y" unicode="Y" horiz-adv-x="389" d="M388 712 L265 712 L194 430 L124 712 L0 712 L138 279 L138 0 L250 0 L250 279 L388 712 Z " />
<glyph glyph-name="Z" unicode="Z" horiz-adv-x="373" d="M341 0 L341 101 L148 101 L341 628 L341 712 L43 712 L43 611 L225 611 L31 84 L31 0 L341 0 Z " />
<glyph glyph-name="bracketleft" unicode="&#x5b;" horiz-adv-x="282" d="M253 -74 L253 20 L159 20 L159 692 L253 692 L253 786 L53 786 L53 -74 L253 -74 Z " />
<glyph glyph-name="backslash" unicode="&#x5c;" horiz-adv-x="298" d="M291 -74 L106 786 L6 786 L191 -74 L291 -74 Z " />
<glyph glyph-name="bracketright" unicode="&#x5d;" horiz-adv-x="282" d="M228 -74 L228 786 L29 786 L29 692 L122 692 L122 20 L29 20 L29 -74 L228 -74 Z " />
<glyph glyph-name="asciicircum" unicode="&#x5e;" horiz-adv-x="463" d="M418 434 L278 717 L185 717 L45 434 L149 434 L232 611 L315 434 L418 434 Z " />
<glyph glyph-name="underscore" unicode="&#x5f;" horiz-adv-x="457" d="M457 -153 L457 -76 L0 -76 L0 -153 L457 -153 Z " />
<glyph glyph-name="grave" unicode="&#x60;" horiz-adv-x="399" d="M245 587 L173 726 L84 726 L171 587 L245 587 Z " />
<glyph glyph-name="a" unicode="a" horiz-adv-x="399" d="M350 0 L350 372 C350 429 332 468 304 496 C277 524 236 535 192 535 C149 535 106 517 81 492 C48 459 36 420 36 378 L142 378 C142 400 147 415 158 427 C166 436 177 442 193 442 C226 442 244 420 244 381 L244 308 L197 308 C136 308 102 295 76 272 C44 244 27 202 27 154 C27 101 38 61 59 36 C86 5 114 -8 158 -8 C185 -8 202 -1 218 10 C230 18 241 32 250 45 L250 0 L350 0 Z M244 155 C244 112 220 85 188 85 C152 85 133 111 133 158 C133 179 141 205 154 217 C169 231 186 233 209 233 L244 233 L244 155 Z " />
<glyph glyph-name="b" unicode="b" horiz-adv-x="408" d="M372 264 C372 378 370 451 335 494 C311 523 283 535 242 535 C223 535 204 530 189 521 C178 515 166 504 158 493 L158 712 L52 712 L52 0 L154 0 L154 40 C160 30 178 13 189 7 C204 -2 223 -8 242 -8 C281 -8 311 3 335 33 C370 76 372 150 372 264 L372 264 Z M266 264 C266 186 265 132 251 108 C242 94 227 87 211 87 C198 87 184 91 175 100 C164 111 158 127 158 150 L158 377 C158 400 164 416 175 427 C184 436 198 441 211 441 C227 441 242 433 251 419 C265 395 266 342 266 264 L266 264 Z " />
<glyph glyph-name="c" unicode="c" horiz-adv-x="384" d="M356 155 L251 155 C250 137 248 119 237 105 C229 94 216 87 198 87 C182 87 166 94 157 108 C143 133 142 186 142 264 C142 342 143 395 157 419 C166 433 182 441 198 441 C216 441 229 434 237 422 C248 408 250 389 251 373 L356 373 C353 418 342 466 309 498 C278 527 243 535 198 535 C148 535 104 523 73 480 C40 434 36 353 36 264 C36 174 40 93 73 48 C104 5 148 -8 198 -8 C245 -8 283 4 310 31 C339 60 353 105 356 155 L356 155 Z " />
<glyph glyph-name="d" unicode="d" horiz-adv-x="408" d="M356 0 L356 712 L250 712 L250 493 C242 504 230 515 219 521 C204 530 185 535 166 535 C125 535 97 523 73 494 C38 451 36 378 36 264 C36 150 38 76 73 33 C97 3 127 -8 166 -8 C185 -8 204 -2 219 7 C230 13 248 30 254 40 L254 0 L356 0 Z M250 150 C250 127 244 111 233 100 C224 91 210 87 197 87 C181 87 166 94 157 108 C143 132 142 186 142 264 C142 342 143 395 157 419 C166 433 181 441 197 441 C210 441 224 436 233 427 C244 416 250 400 250 377 L250 150 Z " />
<glyph glyph-name="e" unicode="e" horiz-adv-x="394" d="M359 233 C358 332 362 439 311 493 C280 526 242 535 198 535 C155 535 117 525 85 493 C40 448 36 360 36 264 C36 168 40 80 85 35 C117 3 150 -8 199 -8 C245 -8 286 4 313 34 C343 67 355 111 357 155 L252 155 C252 139 247 118 239 108 C229 95 217 87 199 87 C180 87 166 96 158 108 C145 127 142 173 142 233 L359 233 Z M253 311 L142 311 C142 365 146 405 158 420 C167 432 179 441 198 441 C217 441 229 432 238 420 C250 405 253 365 253 311 L253 311 Z " />
<glyph glyph-name="f" unicode="f" horiz-adv-x="271" d="M252 446 L252 527 L179 527 L179 552 C179 600 203 623 252 623 L252 718 C203 718 161 712 126 685 C93 659 73 620 73 558 L73 527 L19 527 L19 446 L73 446 L73 0 L179 0 L179 446 L252 446 Z " />
<glyph glyph-name="g" unicode="g" horiz-adv-x="408" d="M356 -10 L356 527 L254 527 L254 493 C246 504 234 515 223 521 C207 530 188 535 169 535 C124 535 102 524 78 496 C45 457 36 396 36 283 C36 170 45 110 78 71 C102 43 125 32 169 32 C190 32 206 35 220 44 C230 50 241 61 250 73 L250 -17 C250 -50 246 -69 235 -82 C226 -92 213 -99 197 -99 C181 -99 168 -93 159 -83 C148 -70 144 -53 144 -33 L39 -33 C39 -77 51 -117 83 -149 C112 -177 153 -190 197 -190 C240 -190 284 -174 311 -147 C340 -118 356 -78 356 -10 L356 -10 Z M250 187 C250 165 245 150 235 139 C226 129 212 124 197 124 C178 124 168 132 158 145 C142 166 142 217 142 282 C142 347 142 398 158 419 C168 432 178 441 197 441 C212 441 225 436 234 426 C244 415 250 399 250 377 L250 187 Z " />
<glyph glyph-name="h" unicode="h" horiz-adv-x="417" d="M368 0 L368 380 C368 441 359 470 338 494 C314 522 285 535 242 535 C223 535 204 530 189 521 C178 515 166 504 158 493 L158 712 L52 712 L52 0 L158 0 L158 379 C158 420 181 440 210 440 C239 440 262 420 262 379 L262 0 L368 0 Z " />
<glyph glyph-name="i" unicode="i" horiz-adv-x="210" d="M158 0 L158 513 L52 513 L52 0 L158 0 Z M163 594 L163 711 L46 711 L46 594 L163 594 Z " />
<glyph glyph-name="j" unicode="j" horiz-adv-x="210" d="M158 -25 L158 513 L52 513 L52 -19 C52 -72 28 -90 -20 -90 L-20 -185 C29 -185 69 -179 104 -152 C137 -127 158 -88 158 -25 L158 -25 Z M163 594 L163 711 L46 711 L46 594 L163 594 Z " />
<glyph glyph-name="k" unicode="k" horiz-adv-x="416" d="M409 0 L271 318 L402 527 L291 527 L158 302 L158 712 L52 712 L52 0 L158 0 L158 151 L203 222 L292 0 L409 0 Z " />
<glyph glyph-name="l" unicode="l" horiz-adv-x="244" d="M227 0 L227 95 C178 95 155 119 155 166 L155 712 L49 712 L49 160 C49 97 69 57 102 32 C137 5 178 0 227 0 L227 0 Z " />
<glyph glyph-name="m" unicode="m" horiz-adv-x="628" d="M579 0 L579 380 C579 441 569 470 548 494 C524 522 497 535 448 535 C432 535 408 530 392 521 C375 511 358 496 345 481 C322 514 284 535 242 535 C223 535 204 530 189 521 C176 514 163 500 154 488 L154 527 L52 527 L52 0 L158 0 L158 379 C158 420 181 440 210 440 C239 440 262 420 262 379 L262 0 L368 0 L368 379 C368 420 391 440 420 440 C449 440 473 420 473 379 L473 0 L579 0 Z " />
<glyph glyph-name="n" unicode="n" horiz-adv-x="417" d="M368 0 L368 380 C368 441 359 470 338 494 C314 522 285 535 242 535 C223 535 204 530 189 521 C176 514 163 500 154 488 L154 527 L52 527 L52 0 L158 0 L158 379 C158 420 181 440 210 440 C239 440 262 420 262 379 L262 0 L368 0 Z " />
<glyph glyph-name="o" unicode="o" horiz-adv-x="396" d="M360 264 C360 353 356 434 323 480 C292 523 249 535 198 535 C147 535 104 523 73 480 C40 434 36 353 36 264 C36 175 40 94 73 48 C104 5 147 -8 198 -8 C249 -8 292 5 323 48 C356 94 360 175 360 264 L360 264 Z M254 264 C254 186 253 132 239 108 C230 94 214 87 198 87 C182 87 166 94 157 108 C143 132 142 186 142 264 C142 342 143 395 157 419 C166 433 182 441 198 441 C214 441 230 433 239 419 C253 395 254 342 254 264 L254 264 Z " />
<glyph glyph-name="p" unicode="p" horiz-adv-x="408" d="M372 264 C372 378 370 451 335 494 C311 524 281 535 242 535 C223 535 204 530 189 521 C178 515 160 498 154 488 L154 527 L52 527 L52 -185 L158 -185 L158 34 C166 23 178 12 189 6 C204 -3 223 -8 242 -8 C283 -8 311 4 335 33 C370 76 372 150 372 264 L372 264 Z M266 264 C266 186 265 132 251 108 C242 94 227 87 211 87 C198 87 184 91 175 100 C164 111 158 127 158 150 L158 377 C158 400 164 416 175 427 C184 436 198 441 211 441 C227 441 242 433 251 419 C265 395 266 342 266 264 L266 264 Z " />
<glyph glyph-name="q" unicode="q" horiz-adv-x="408" d="M356 -185 L356 527 L254 527 L254 488 C248 498 230 515 219 521 C204 530 185 535 166 535 C127 535 97 524 73 494 C38 451 36 378 36 264 C36 150 38 76 73 33 C97 4 125 -8 166 -8 C185 -8 204 -3 219 6 C230 12 242 23 250 34 L250 -185 L356 -185 Z M250 150 C250 127 244 111 233 100 C224 91 210 87 197 87 C181 87 166 94 157 108 C143 132 142 186 142 264 C142 342 143 395 157 419 C166 433 181 441 197 441 C210 441 224 436 233 427 C244 416 250 400 250 377 L250 150 Z " />
<glyph glyph-name="r" unicode="r" horiz-adv-x="299" d="M282 432 L282 535 C251 535 223 527 200 513 C182 502 165 487 154 471 L154 527 L52 527 L52 0 L158 0 L158 341 C158 398 196 432 246 432 L282 432 Z " />
<glyph glyph-name="s" unicode="s" horiz-adv-x="381" d="M352 152 C352 188 344 218 330 238 C313 263 289 280 253 296 L183 326 C165 334 151 345 144 356 C138 365 136 374 136 387 C136 403 141 417 151 427 C160 436 174 442 190 442 C204 442 217 437 227 426 C237 415 242 401 242 378 L346 378 C346 431 329 468 301 495 C274 521 234 535 190 535 C146 535 105 520 76 491 C48 462 30 429 30 378 C30 349 35 325 47 306 C62 282 88 261 124 245 L194 214 C213 206 227 196 235 184 C243 172 246 160 246 145 C246 128 241 112 231 103 C219 92 207 88 190 88 C176 88 160 93 150 104 C138 116 132 133 132 154 L27 154 C27 104 43 67 74 35 C101 7 145 -8 190 -8 C235 -8 273 3 305 35 C332 62 352 100 352 152 L352 152 Z " />
<glyph glyph-name="t" unicode="t" horiz-adv-x="274" d="M254 0 L254 95 C204 95 179 117 179 166 L179 446 L252 446 L252 527 L179 527 L179 662 L73 662 L73 527 L19 527 L19 446 L73 446 L73 160 C73 98 93 58 126 32 C162 4 204 0 254 0 L254 0 Z " />
<glyph glyph-name="u" unicode="u" horiz-adv-x="417" d="M365 0 L365 527 L259 527 L259 148 C259 107 236 87 207 87 C178 87 155 107 155 148 L155 527 L49 527 L49 147 C49 86 58 57 79 33 C103 5 132 -8 175 -8 C194 -8 213 -2 228 7 C241 14 255 28 264 40 L264 0 L365 0 Z " />
<glyph glyph-name="v" unicode="v" horiz-adv-x="381" d="M377 527 L260 527 L191 168 L121 527 L4 527 L135 0 L247 0 L377 527 Z " />
<glyph glyph-name="w" unicode="w" horiz-adv-x="577" d="M573 527 L454 527 L399 168 L333 527 L242 527 L177 168 L122 527 L4 527 L120 0 L225 0 L287 342 L350 0 L455 0 L573 527 Z " />
<glyph glyph-name="x" unicode="x" horiz-adv-x="391" d="M382 0 L256 268 L376 527 L258 527 L195 367 L132 527 L15 527 L133 268 L9 0 L126 0 L195 164 L264 0 L382 0 Z " />
<glyph glyph-name="y" unicode="y" horiz-adv-x="382" d="M377 527 L260 527 L191 168 L121 527 L4 527 L135 1 L126 -36 C113 -86 78 -90 32 -91 L32 -185 C128 -185 203 -173 229 -67 L377 527 Z " />
<glyph glyph-name="z" unicode="z" horiz-adv-x="325" d="M299 0 L299 95 L145 95 L299 448 L299 527 L38 527 L38 433 L180 433 L26 80 L26 0 L299 0 Z " />
<glyph glyph-name="braceleft" unicode="&#x7b;" horiz-adv-x="335" d="M307 -74 L307 21 L268 21 C241 21 220 42 220 73 L220 253 C220 293 209 318 193 334 C180 345 166 353 156 356 C166 359 179 364 193 378 C209 394 220 419 220 459 L220 639 C220 670 241 691 268 691 L307 691 L307 786 L246 786 C210 786 176 774 152 750 C129 728 114 694 114 646 L114 456 C114 425 95 403 68 403 L29 403 L29 309 L68 309 C95 309 114 287 114 256 L114 66 C114 18 129 -16 152 -38 C176 -62 210 -74 246 -74 L307 -74 Z " />
<glyph glyph-name="bar" unicode="&#x7c;" horiz-adv-x="330" d="M218 -74 L218 786 L112 786 L112 -74 L218 -74 Z " />
<glyph glyph-name="braceright" unicode="&#x7d;" horiz-adv-x="335" d="M307 309 L307 403 L268 403 C241 403 221 425 221 456 L221 646 C221 694 207 728 184 750 C160 774 125 786 89 786 L29 786 L29 691 L68 691 C95 691 115 670 115 639 L115 459 C115 419 126 394 142 378 C152 364 169 359 179 356 C169 353 153 345 142 334 C126 318 115 293 115 253 L115 73 C115 42 95 21 68 21 L29 21 L29 -74 L89 -74 C125 -74 160 -62 184 -38 C207 -16 221 18 221 66 L221 256 C221 287 241 309 268 309 L307 309 Z " />
<glyph glyph-name="asciitilde" unicode="&#x7e;" horiz-adv-x="457" d="M434 287 L369 351 C346 328 329 318 303 318 C277 318 259 327 238 338 C210 353 185 363 149 363 C105 363 70 344 23 297 L88 233 C111 256 128 266 154 266 C180 266 199 257 220 246 C248 231 272 221 308 221 C352 221 387 240 434 287 L434 287 Z " />
<glyph glyph-name="nbspace" unicode="&#xa0;" horiz-adv-x="179" d="" />
<glyph glyph-name="exclamdown" unicode="&#xa1;" horiz-adv-x="257" d="M170 -185 L170 328 L64 328 L64 -185 L170 -185 Z M179 404 L179 527 L56 527 L56 404 L179 404 Z " />
<glyph glyph-name="cent" unicode="&#xa2;" horiz-adv-x="392" d="M360 259 L255 259 C255 242 253 225 242 212 C233 201 220 194 203 194 C187 194 171 201 162 215 C148 238 147 289 147 363 C147 437 148 488 162 511 C171 525 187 531 203 531 C221 531 233 525 242 514 C253 500 255 483 255 467 L360 467 C358 510 347 556 314 586 C293 605 270 615 244 619 L244 712 L163 712 L163 619 C129 613 100 598 78 569 C45 525 41 448 41 363 C41 278 45 201 78 157 C100 128 129 113 163 107 L163 0 L244 0 L244 107 C273 113 297 123 315 141 C344 169 358 212 360 259 L360 259 Z " />
<glyph glyph-name="sterling" unicode="&#xa3;" horiz-adv-x="460" d="M427 0 L427 101 L207 101 L207 324 L287 324 L287 405 L207 405 L207 528 C207 586 243 619 286 619 C322 619 339 602 350 588 L427 663 C393 699 342 720 286 720 C177 720 95 644 95 527 L95 405 L32 405 L32 324 L95 324 L95 0 L427 0 Z " />
<glyph glyph-name="currency" unicode="&#xa4;" horiz-adv-x="498" d="M459 189 L347 189 C346 142 335 93 277 93 C250 93 233 105 223 120 C208 142 204 168 203 235 L309 235 L309 316 L200 316 L200 396 L309 396 L309 477 L203 477 C204 544 208 570 222 592 C232 608 250 619 277 619 C335 619 346 571 347 524 L459 524 C457 587 437 641 402 674 C370 704 331 720 277 720 C209 720 170 694 140 660 C107 622 92 566 90 477 L32 477 L32 396 L88 396 L88 316 L32 316 L32 235 L90 235 C92 146 106 90 140 52 C170 18 209 -8 277 -8 C330 -8 368 8 400 37 C436 70 457 125 459 189 L459 189 Z " />
<glyph glyph-name="yen" unicode="&#xa5;" horiz-adv-x="389" d="M380 712 L263 712 L194 430 L126 712 L9 712 L102 407 L42 407 L42 327 L127 327 L141 279 L141 239 L42 239 L42 158 L141 158 L141 0 L247 0 L247 158 L346 158 L346 239 L247 239 L247 279 L262 327 L346 327 L346 407 L287 407 L380 712 Z " />
<glyph glyph-name="brokenbar" unicode="&#xa6;" horiz-adv-x="330" d="M218 438 L218 784 L112 784 L112 438 L218 438 Z M218 -72 L218 274 L112 274 L112 -72 L218 -72 Z " />
<glyph glyph-name="section" unicode="&#xa7;" horiz-adv-x="429" d="M384 270 C384 362 377 395 340 433 C326 447 301 461 281 469 L209 500 C192 507 177 519 170 530 C165 539 162 550 162 565 C162 581 167 594 177 604 C186 613 199 619 215 619 C229 619 242 614 252 603 C263 592 267 576 267 559 L373 559 C373 609 354 650 321 677 C293 700 257 712 215 712 C171 712 128 697 99 668 C71 640 53 604 53 556 C53 524 59 500 71 481 C82 462 101 445 122 432 C111 428 102 422 94 416 C51 380 45 342 45 270 C45 196 47 147 93 102 C107 89 125 78 143 70 L216 39 C233 32 248 21 257 8 C264 -2 268 -15 268 -29 C268 -47 262 -61 253 -70 C243 -80 231 -84 212 -84 C198 -84 183 -79 173 -68 C162 -56 157 -41 157 -23 L49 -23 C49 -70 66 -106 96 -136 C124 -164 167 -180 212 -180 C257 -180 301 -168 330 -138 C360 -108 377 -72 377 -20 C377 7 371 34 358 56 C346 77 330 91 309 104 C320 107 328 113 335 119 C379 156 384 197 384 270 L384 270 Z M278 270 C278 227 278 189 255 169 C244 160 231 154 215 154 C199 154 185 159 174 168 C151 188 151 229 151 270 C151 315 152 352 174 371 C185 380 199 386 215 386 C231 386 244 381 255 371 C278 350 278 313 278 270 L278 270 Z " />
<glyph glyph-name="dieresis" unicode="&#xa8;" horiz-adv-x="399" d="M337 597 L337 697 L237 697 L237 597 L337 597 Z M162 597 L162 697 L62 697 L62 597 L162 597 Z " />
<glyph glyph-name="copyright" unicode="&#xa9;" horiz-adv-x="844" d="M784 356 C784 556 622 718 422 718 C222 718 60 556 60 356 C60 156 222 -6 422 -6 C622 -6 784 156 784 356 L784 356 Z M713 356 C713 186 586 59 422 59 C258 59 131 186 131 356 C131 526 258 653 422 653 C586 653 713 526 713 356 L713 356 Z M527 269 L462 269 C462 251 460 236 452 226 C446 218 437 213 424 213 C411 213 402 220 396 229 C384 248 382 294 382 355 C382 416 384 462 396 481 C402 490 410 497 424 497 C438 497 447 491 453 482 C460 472 462 458 462 442 L526 442 C525 481 514 511 495 530 C477 548 454 557 424 557 C386 557 364 541 347 521 C318 486 318 419 318 355 C318 291 318 224 347 189 C364 169 386 153 424 153 C454 153 477 163 495 181 C514 200 526 230 527 269 L527 269 Z " />
<glyph glyph-name="ordfeminine" unicode="&#xaa;" horiz-adv-x="331" d="M289 294 L289 585 C289 630 274 662 252 684 C229 707 195 717 160 717 C124 717 89 703 68 682 C41 655 32 624 32 589 L120 589 C120 599 120 615 131 627 C138 634 148 640 161 640 C187 640 201 621 201 593 L201 539 L164 539 C115 539 87 528 66 510 C39 487 25 455 25 416 C25 374 33 344 51 324 C73 299 97 290 132 290 C150 290 167 295 179 302 C186 306 197 315 207 328 L207 294 L289 294 Z M201 420 C201 385 181 364 157 364 C127 364 113 387 113 420 C113 436 119 454 130 464 C141 474 157 477 173 477 L201 477 L201 420 Z " />
<glyph glyph-name="guillemotleft" unicode="&#xab;" horiz-adv-x="414" d="M185 27 L185 184 L124 276 L185 366 L185 524 L24 276 L185 27 Z M367 27 L367 184 L305 276 L367 366 L367 524 L207 276 L367 27 Z " />
<glyph glyph-name="logicalnot" unicode="&#xac;" horiz-adv-x="457" d="M407 142 L407 353 L51 353 L51 252 L306 252 L306 142 L407 142 Z " />
<glyph glyph-name="registered" unicode="&#xae;" horiz-adv-x="844" d="M784 356 C784 556 622 718 422 718 C222 718 60 556 60 356 C60 156 222 -6 422 -6 C622 -6 784 156 784 356 L784 356 Z M713 356 C713 186 586 59 422 59 C258 59 131 186 131 356 C131 526 258 653 422 653 C586 653 713 526 713 356 L713 356 Z M544 158 L488 332 C495 336 502 341 507 347 C528 369 532 396 532 435 C532 477 526 507 506 528 C490 544 465 552 432 552 L328 552 L328 158 L393 158 L393 318 L428 318 L477 158 L544 158 Z M468 435 C468 414 467 399 457 388 C451 382 443 378 432 378 L393 378 L393 492 L432 492 C443 492 451 488 457 482 C466 471 468 455 468 435 L468 435 Z " />
<glyph glyph-name="macron" unicode="&#xaf;" horiz-adv-x="399" d="M322 610 L322 681 L77 681 L77 610 L322 610 Z " />
<glyph glyph-name="degree" unicode="&#xb0;" horiz-adv-x="410" d="M367 564 C367 653 294 726 205 726 C116 726 43 653 43 564 C43 475 116 402 205 402 C294 402 367 475 367 564 L367 564 Z M274 564 C274 525 243 495 205 495 C167 495 136 525 136 564 C136 603 167 634 205 634 C243 634 274 603 274 564 L274 564 Z " />
<glyph glyph-name="plusminus" unicode="&#xb1;" horiz-adv-x="457" d="M413 316 L413 417 L279 417 L279 551 L178 551 L178 417 L44 417 L44 316 L178 316 L178 182 L279 182 L279 316 L413 316 Z M413 13 L413 114 L44 114 L44 13 L413 13 Z " />
<glyph glyph-name="twosuperior" unicode="&#xb2;" horiz-adv-x="317" d="M276 285 L276 344 L128 344 L247 522 C264 548 276 583 276 614 C276 649 261 676 240 693 C218 710 192 717 158 717 C125 717 94 708 73 690 C51 672 41 650 41 612 L41 584 L117 584 L117 614 C117 642 132 657 158 657 C182 657 199 642 199 616 C199 586 191 564 178 544 L45 341 L45 285 L276 285 Z " />
<glyph glyph-name="threesuperior" unicode="&#xb3;" horiz-adv-x="317" d="M275 405 C275 434 273 458 260 479 C252 492 240 502 226 509 C239 516 249 524 257 536 C269 555 271 577 271 603 C271 640 261 671 238 691 C220 707 193 717 156 717 C122 717 93 708 72 690 C51 672 41 650 41 612 L41 592 L118 592 L118 616 C118 629 121 640 128 647 C135 654 144 657 156 657 C169 657 178 653 184 647 C195 636 195 615 195 599 C195 583 195 559 182 546 C175 540 167 537 155 537 L130 537 L130 480 L155 480 C170 480 180 476 187 467 C197 455 198 432 198 410 C198 389 196 362 186 351 C180 344 169 340 156 340 C144 340 133 344 126 351 C118 358 115 368 115 386 L115 406 L38 406 L38 388 C38 346 50 325 70 308 C91 290 123 280 156 280 C189 280 220 290 241 307 C273 334 275 363 275 405 L275 405 Z " />
<glyph glyph-name="acute" unicode="&#xb4;" horiz-adv-x="399" d="M315 726 L226 726 L154 587 L228 587 L315 726 Z " />
<glyph glyph-name="mu" unicode="&#xb5;" horiz-adv-x="421" d="M367 0 L367 527 L261 527 L261 148 C261 107 238 87 209 87 C180 87 156 107 156 148 L156 527 L50 527 L50 -185 L152 -185 L152 0 C155 -4 164 -8 174 -8 C196 -8 215 -2 230 7 C243 14 256 28 265 40 L265 0 L367 0 Z " />
<glyph glyph-name="paragraph" unicode="&#xb6;" horiz-adv-x="602" d="M549 -185 L549 712 L184 712 C92 712 36 652 36 499 C36 346 92 286 184 286 L236 286 L236 -185 L342 -185 L342 611 L443 611 L443 -185 L549 -185 Z " />
<glyph glyph-name="periodcentered" unicode="&#xb7;" horiz-adv-x="272" d="M216 221 L216 381 L56 381 L56 221 L216 221 Z " />
<glyph glyph-name="cedilla" unicode="&#xb8;" horiz-adv-x="399" d="M243 -40 L175 -40 L114 -194 L190 -194 L243 -40 Z " />
<glyph glyph-name="onesuperior" unicode="&#xb9;" horiz-adv-x="317" d="M212 285 L212 712 L136 712 L60 663 L60 587 L135 634 L135 285 L212 285 Z " />
<glyph glyph-name="ordmasculine" unicode="&#xba;" horiz-adv-x="329" d="M297 502 C297 572 293 636 266 672 C241 706 207 716 165 716 C123 716 88 706 63 672 C36 636 32 572 32 502 C32 432 36 368 63 332 C88 298 123 288 165 288 C207 288 241 298 266 332 C293 368 297 432 297 502 L297 502 Z M209 502 C209 460 208 402 196 382 C189 371 178 365 165 365 C152 365 140 371 133 382 C121 403 120 459 120 502 C120 545 121 601 133 622 C140 633 152 639 165 639 C178 639 189 633 196 622 C208 602 209 544 209 502 L209 502 Z " />
<glyph glyph-name="guillemotright" unicode="&#xbb;" horiz-adv-x="414" d="M389 276 L229 524 L229 366 L290 276 L229 184 L229 27 L389 276 Z M207 276 L47 524 L47 366 L109 276 L47 184 L47 27 L207 276 Z " />
<glyph glyph-name="onequarter" unicode="&#xbc;" horiz-adv-x="785" d="M550 712 L468 712 L222 0 L304 0 L550 712 Z M750 63 L750 123 L716 123 L716 193 L640 193 L640 123 L572 123 L678 427 L603 427 L494 123 L494 63 L640 63 L640 0 L716 0 L716 63 L750 63 Z M211 285 L211 712 L135 712 L60 663 L60 587 L135 634 L135 285 L211 285 Z " />
<glyph glyph-name="onehalf" unicode="&#xbd;" horiz-adv-x="785" d="M550 712 L468 712 L222 0 L304 0 L550 712 Z M744 0 L744 59 L597 59 L715 237 C732 263 744 298 744 329 C744 364 730 391 709 408 C687 425 660 432 626 432 C593 432 562 423 541 405 C519 387 509 365 509 327 L509 299 L586 299 L586 329 C586 357 600 372 626 372 C650 372 667 357 667 331 C667 301 660 279 647 259 L513 56 L513 0 L744 0 Z M211 285 L211 712 L135 712 L60 663 L60 587 L135 634 L135 285 L211 285 Z " />
<glyph glyph-name="threequarters" unicode="&#xbe;" horiz-adv-x="785" d="M550 712 L468 712 L222 0 L304 0 L550 712 Z M275 405 C275 434 273 458 260 479 C252 492 240 502 226 509 C239 516 249 524 257 536 C269 555 271 577 271 603 C271 640 261 671 238 691 C220 707 193 717 156 717 C122 717 93 708 72 690 C51 672 41 650 41 612 L41 592 L118 592 L118 616 C118 629 121 640 128 647 C135 654 144 657 156 657 C169 657 178 653 184 647 C195 636 195 615 195 599 C195 583 195 559 182 546 C175 540 167 537 155 537 L130 537 L130 480 L155 480 C170 480 180 476 187 467 C197 455 198 432 198 410 C198 389 196 362 186 351 C180 344 169 340 156 340 C144 340 133 344 126 351 C118 358 115 368 115 386 L115 406 L38 406 L38 388 C38 346 50 325 70 308 C91 290 123 280 156 280 C189 280 220 290 241 307 C273 334 275 363 275 405 L275 405 Z M750 63 L750 123 L716 123 L716 193 L639 193 L639 123 L572 123 L677 427 L603 427 L493 123 L493 63 L639 63 L639 0 L716 0 L716 63 L750 63 Z " />
<glyph glyph-name="questiondown" unicode="&#xbf;" horiz-adv-x="426" d="M370 1 L264 1 C264 -27 263 -57 245 -77 C234 -89 220 -96 202 -96 C183 -96 170 -89 159 -77 C143 -59 139 -34 139 1 C139 40 143 65 165 94 L224 172 C242 196 255 226 255 258 L255 328 L149 328 L149 270 C149 246 141 225 126 205 L67 127 C43 95 33 59 33 4 C33 -66 46 -110 81 -145 C109 -174 150 -191 203 -191 C257 -191 295 -170 323 -144 C358 -111 370 -59 370 1 L370 1 Z M264 404 L264 527 L141 527 L141 404 L264 404 Z " />
<glyph glyph-name="Agrave" unicode="&#xc0;" horiz-adv-x="468" d="M462 0 L289 712 L180 712 L5 0 L123 0 L151 141 L316 141 L345 0 L462 0 Z M295 242 L173 242 L234 540 L295 242 Z M280 760 L208 899 L119 899 L206 760 L280 760 Z " />
<glyph glyph-name="Aacute" unicode="&#xc1;" horiz-adv-x="468" d="M462 0 L289 712 L180 712 L5 0 L123 0 L151 141 L316 141 L345 0 L462 0 Z M295 242 L173 242 L234 540 L295 242 Z M349 899 L260 899 L188 760 L262 760 L349 899 Z " />
<glyph glyph-name="Acircumflex" unicode="&#xc2;" horiz-adv-x="468" d="M462 0 L289 712 L180 712 L5 0 L123 0 L151 141 L316 141 L345 0 L462 0 Z M375 760 L276 899 L193 899 L94 760 L175 760 L234 842 L294 760 L375 760 Z M295 242 L173 242 L234 540 L295 242 Z " />
<glyph glyph-name="Atilde" unicode="&#xc3;" horiz-adv-x="468" d="M462 0 L289 712 L180 712 L5 0 L123 0 L151 141 L316 141 L345 0 L462 0 Z M381 814 L334 861 C314 841 302 838 289 838 C273 838 260 844 245 853 C223 866 206 870 183 870 C152 870 130 858 95 823 L140 777 C160 797 172 800 186 800 C202 800 215 794 230 785 C252 772 269 768 292 768 C323 768 346 779 381 814 L381 814 Z M295 242 L173 242 L234 540 L295 242 Z " />
<glyph glyph-name="Adieresis" unicode="&#xc4;" horiz-adv-x="468" d="M462 0 L289 712 L180 712 L5 0 L123 0 L151 141 L316 141 L345 0 L462 0 Z M295 242 L173 242 L234 540 L295 242 Z M372 770 L372 870 L272 870 L272 770 L372 770 Z M197 770 L197 870 L97 870 L97 770 L197 770 Z " />
<glyph glyph-name="Aring" unicode="&#xc5;" horiz-adv-x="468" d="M462 0 L289 712 L180 712 L5 0 L123 0 L151 141 L316 141 L345 0 L462 0 Z M339 861 C339 919 292 965 234 965 C176 965 130 919 130 861 C130 803 176 756 234 756 C292 756 339 803 339 861 L339 861 Z M295 242 L173 242 L234 540 L295 242 Z M280 861 C280 836 259 815 234 815 C209 815 189 836 189 861 C189 886 209 907 234 907 C259 907 280 886 280 861 L280 861 Z " />
<glyph glyph-name="AE" unicode="&#xc6;" horiz-adv-x="675" d="M638 0 L638 101 L451 101 L451 308 L612 308 L612 409 L451 409 L451 611 L638 611 L638 712 L267 712 L6 0 L129 0 L181 148 L339 148 L339 0 L638 0 Z M339 249 L214 249 L339 611 L339 249 Z " />
<glyph glyph-name="Ccedilla" unicode="&#xc7;" horiz-adv-x="447" d="M413 189 L301 189 C300 163 296 137 284 119 C274 103 258 93 231 93 C204 93 188 104 178 120 C157 154 153 226 153 356 C153 486 157 558 178 592 C188 608 204 619 231 619 C258 619 273 609 283 593 C295 575 299 550 300 524 L412 524 C410 587 390 641 355 674 C323 704 285 720 231 720 C163 720 123 694 93 660 C40 600 41 495 41 355 C41 215 40 112 93 52 C123 18 163 -8 231 -8 C284 -8 322 8 354 37 C390 70 411 125 413 189 L413 189 Z M267 -40 L199 -40 L138 -194 L214 -194 L267 -40 Z " />
<glyph glyph-name="Egrave" unicode="&#xc8;" horiz-adv-x="396" d="M359 0 L359 101 L172 101 L172 308 L333 308 L333 409 L172 409 L172 611 L359 611 L359 712 L60 712 L60 0 L359 0 Z M258 760 L186 899 L97 899 L184 760 L258 760 Z " />
<glyph glyph-name="Eacute" unicode="&#xc9;" horiz-adv-x="396" d="M359 0 L359 101 L172 101 L172 308 L333 308 L333 409 L172 409 L172 611 L359 611 L359 712 L60 712 L60 0 L359 0 Z M328 899 L239 899 L167 760 L241 760 L328 899 Z " />
<glyph glyph-name="Ecircumflex" unicode="&#xca;" horiz-adv-x="396" d="M359 0 L359 101 L172 101 L172 308 L333 308 L333 409 L172 409 L172 611 L359 611 L359 712 L60 712 L60 0 L359 0 Z M354 760 L255 899 L172 899 L73 760 L154 760 L213 842 L273 760 L354 760 Z " />
<glyph glyph-name="Edieresis" unicode="&#xcb;" horiz-adv-x="396" d="M359 0 L359 101 L172 101 L172 308 L333 308 L333 409 L172 409 L172 611 L359 611 L359 712 L60 712 L60 0 L359 0 Z M176 770 L176 870 L76 870 L76 770 L176 770 Z M351 770 L351 870 L251 870 L251 770 L351 770 Z " />
<glyph glyph-name="Igrave" unicode="&#xcc;" horiz-adv-x="232" d="M172 0 L172 712 L60 712 L60 0 L172 0 Z M172 760 L100 899 L11 899 L98 760 L172 760 Z " />
<glyph glyph-name="Iacute" unicode="&#xcd;" horiz-adv-x="232" d="M172 0 L172 712 L60 712 L60 0 L172 0 Z M233 899 L144 899 L72 760 L146 760 L233 899 Z " />
<glyph glyph-name="Icircumflex" unicode="&#xce;" horiz-adv-x="232" d="M172 0 L172 712 L60 712 L60 0 L172 0 Z M257 760 L158 899 L75 899 L-24 760 L57 760 L116 842 L176 760 L257 760 Z " />
<glyph glyph-name="Idieresis" unicode="&#xcf;" horiz-adv-x="232" d="M172 0 L172 712 L60 712 L60 0 L172 0 Z M78 770 L78 870 L-22 870 L-22 770 L78 770 Z M253 770 L253 870 L153 870 L153 770 L253 770 Z " />
<glyph glyph-name="Eth" unicode="&#xd0;" horiz-adv-x="489" d="M448 356 C448 493 449 594 396 653 C367 686 326 712 258 712 L77 712 L77 402 L26 402 L26 314 L77 314 L77 0 L258 0 C326 0 367 26 396 59 C449 118 448 219 448 356 L448 356 Z M336 357 C336 233 333 163 312 130 C301 113 282 101 255 101 L189 101 L189 314 L259 314 L259 402 L189 402 L189 611 L255 611 C282 611 301 599 312 582 C333 549 336 481 336 357 L336 357 Z " />
<glyph glyph-name="Ntilde" unicode="&#xd1;" horiz-adv-x="499" d="M439 0 L439 712 L327 712 L327 289 L160 712 L60 712 L60 0 L172 0 L172 423 L340 0 L439 0 Z M400 814 L353 861 C333 841 321 838 308 838 C292 838 279 844 264 853 C242 866 225 870 202 870 C171 870 149 858 114 823 L159 777 C179 797 191 800 205 800 C221 800 234 794 249 785 C271 772 288 768 311 768 C342 768 365 779 400 814 L400 814 Z " />
<glyph glyph-name="Ograve" unicode="&#xd2;" horiz-adv-x="462" d="M421 356 C421 496 422 600 369 660 C339 694 299 720 231 720 C163 720 123 694 93 660 C40 600 41 496 41 356 C41 216 40 112 93 52 C123 18 163 -8 231 -8 C299 -8 339 18 369 52 C422 112 421 216 421 356 L421 356 Z M309 356 C309 226 306 154 285 120 C275 104 258 93 231 93 C204 93 188 104 178 120 C157 154 153 226 153 356 C153 486 157 558 178 592 C188 608 204 619 231 619 C258 619 275 608 285 592 C306 558 309 486 309 356 L309 356 Z M275 760 L203 899 L114 899 L201 760 L275 760 Z " />
<glyph glyph-name="Oacute" unicode="&#xd3;" horiz-adv-x="462" d="M421 356 C421 496 422 600 369 660 C339 694 299 720 231 720 C163 720 123 694 93 660 C40 600 41 496 41 356 C41 216 40 112 93 52 C123 18 163 -8 231 -8 C299 -8 339 18 369 52 C422 112 421 216 421 356 L421 356 Z M309 356 C309 226 306 154 285 120 C275 104 258 93 231 93 C204 93 188 104 178 120 C157 154 153 226 153 356 C153 486 157 558 178 592 C188 608 204 619 231 619 C258 619 275 608 285 592 C306 558 309 486 309 356 L309 356 Z M346 899 L257 899 L185 760 L259 760 L346 899 Z " />
<glyph glyph-name="Ocircumflex" unicode="&#xd4;" horiz-adv-x="462" d="M421 356 C421 496 422 600 369 660 C339 694 299 720 231 720 C163 720 123 694 93 660 C40 600 41 496 41 356 C41 216 40 112 93 52 C123 18 163 -8 231 -8 C299 -8 339 18 369 52 C422 112 421 216 421 356 L421 356 Z M309 356 C309 226 306 154 285 120 C275 104 258 93 231 93 C204 93 188 104 178 120 C157 154 153 226 153 356 C153 486 157 558 178 592 C188 608 204 619 231 619 C258 619 275 608 285 592 C306 558 309 486 309 356 L309 356 Z M370 760 L271 899 L188 899 L89 760 L170 760 L229 842 L289 760 L370 760 Z " />
<glyph glyph-name="Otilde" unicode="&#xd5;" horiz-adv-x="462" d="M421 356 C421 496 422 600 369 660 C339 694 299 720 231 720 C163 720 123 694 93 660 C40 600 41 496 41 356 C41 216 40 112 93 52 C123 18 163 -8 231 -8 C299 -8 339 18 369 52 C422 112 421 216 421 356 L421 356 Z M309 356 C309 226 306 154 285 120 C275 104 258 93 231 93 C204 93 188 104 178 120 C157 154 153 226 153 356 C153 486 157 558 178 592 C188 608 204 619 231 619 C258 619 275 608 285 592 C306 558 309 486 309 356 L309 356 Z M376 814 L329 861 C309 841 297 838 284 838 C268 838 255 844 240 853 C218 866 201 870 178 870 C147 870 125 858 90 823 L135 777 C155 797 167 800 181 800 C197 800 210 794 225 785 C247 772 264 768 287 768 C318 768 341 779 376 814 L376 814 Z " />
<glyph glyph-name="Odieresis" unicode="&#xd6;" horiz-adv-x="462" d="M421 356 C421 496 422 600 369 660 C339 694 299 720 231 720 C163 720 123 694 93 660 C40 600 41 496 41 356 C41 216 40 112 93 52 C123 18 163 -8 231 -8 C299 -8 339 18 369 52 C422 112 421 216 421 356 L421 356 Z M309 356 C309 226 306 154 285 120 C275 104 258 93 231 93 C204 93 188 104 178 120 C157 154 153 226 153 356 C153 486 157 558 178 592 C188 608 204 619 231 619 C258 619 275 608 285 592 C306 558 309 486 309 356 L309 356 Z M367 770 L367 870 L267 870 L267 770 L367 770 Z M192 770 L192 870 L92 870 L92 770 L192 770 Z " />
<glyph glyph-name="multiply" unicode="&#xd7;" horiz-adv-x="457" d="M413 170 L297 286 L413 402 L345 470 L229 355 L113 470 L45 402 L161 286 L45 170 L113 102 L229 218 L345 102 L413 170 Z " />
<glyph glyph-name="Oslash" unicode="&#xd8;" horiz-adv-x="457" d="M422 356 C422 486 423 593 375 653 L412 756 L338 756 L318 701 C295 713 266 720 231 720 C163 720 123 694 93 660 C40 600 41 496 41 356 C41 225 40 118 88 58 L51 -44 L125 -44 L144 11 C167 -1 196 -8 231 -8 C299 -8 340 18 370 52 C423 112 422 216 422 356 L422 356 Z M281 598 L158 229 C154 256 153 293 153 356 C153 486 157 558 178 592 C188 608 204 619 231 619 C254 619 270 611 281 598 L281 598 Z M309 356 C309 226 306 154 285 120 C275 104 258 93 231 93 C208 93 192 101 182 114 L305 482 C309 455 309 418 309 356 L309 356 Z " />
<glyph glyph-name="Ugrave" unicode="&#xd9;" horiz-adv-x="471" d="M417 175 L417 712 L305 712 L305 169 C305 118 274 93 236 93 C198 93 166 118 166 169 L166 712 L54 712 L54 175 C54 121 72 76 103 44 C137 9 183 -8 236 -8 C289 -8 334 9 368 44 C399 76 417 121 417 175 L417 175 Z M282 760 L210 899 L121 899 L208 760 L282 760 Z " />
<glyph glyph-name="Uacute" unicode="&#xda;" horiz-adv-x="471" d="M417 175 L417 712 L305 712 L305 169 C305 118 274 93 236 93 C198 93 166 118 166 169 L166 712 L54 712 L54 175 C54 121 72 76 103 44 C137 9 183 -8 236 -8 C289 -8 334 9 368 44 C399 76 417 121 417 175 L417 175 Z M353 899 L264 899 L192 760 L266 760 L353 899 Z " />
<glyph glyph-name="Ucircumflex" unicode="&#xdb;" horiz-adv-x="471" d="M417 175 L417 712 L305 712 L305 169 C305 118 274 93 236 93 C198 93 166 118 166 169 L166 712 L54 712 L54 175 C54 121 72 76 103 44 C137 9 183 -8 236 -8 C289 -8 334 9 368 44 C399 76 417 121 417 175 L417 175 Z M377 760 L278 899 L195 899 L96 760 L177 760 L236 842 L296 760 L377 760 Z " />
<glyph glyph-name="Udieresis" unicode="&#xdc;" horiz-adv-x="471" d="M417 175 L417 712 L305 712 L305 169 C305 118 274 93 236 93 C198 93 166 118 166 169 L166 712 L54 712 L54 175 C54 121 72 76 103 44 C137 9 183 -8 236 -8 C289 -8 334 9 368 44 C399 76 417 121 417 175 L417 175 Z M199 770 L199 870 L99 870 L99 770 L199 770 Z M374 770 L374 870 L274 870 L274 770 L374 770 Z " />
<glyph glyph-name="Yacute" unicode="&#xdd;" horiz-adv-x="389" d="M388 712 L265 712 L194 430 L124 712 L0 712 L138 279 L138 0 L250 0 L250 279 L388 712 Z M310 899 L221 899 L149 760 L223 760 L310 899 Z " />
<glyph glyph-name="Thorn" unicode="&#xde;" horiz-adv-x="459" d="M422 361 C422 510 368 577 239 577 L172 577 L172 712 L60 712 L60 0 L172 0 L172 143 L239 143 C374 143 422 217 422 361 L422 361 Z M310 360 C310 297 301 244 241 244 L172 244 L172 476 L241 476 C301 476 310 423 310 360 L310 360 Z " />
<glyph glyph-name="germandbls" unicode="&#xdf;" horiz-adv-x="416" d="M381 215 C381 281 378 319 358 353 C349 369 335 383 319 394 C336 406 349 421 357 437 C373 469 374 503 374 538 C374 593 367 639 327 679 C297 709 255 720 211 720 C167 720 125 704 97 677 C68 649 52 616 52 558 L52 0 L158 0 L158 561 C158 604 181 625 212 625 C231 625 244 619 253 607 C267 588 268 558 268 529 C268 505 269 474 254 454 C247 444 236 437 220 437 L212 437 L212 348 L220 348 C239 348 252 341 260 329 C275 307 275 269 275 224 C275 175 276 134 258 112 C247 98 227 95 212 95 L212 0 C256 0 301 8 334 40 C381 85 381 144 381 215 L381 215 Z " />
<glyph glyph-name="agrave" unicode="&#xe0;" horiz-adv-x="399" d="M348 0 L348 372 C348 429 330 468 302 496 C274 524 234 535 190 535 C146 535 104 517 79 492 C46 459 34 420 34 378 L140 378 C140 400 145 415 156 427 C164 436 175 442 191 442 C224 442 242 420 242 381 L242 308 L195 308 C134 308 100 295 74 272 C42 244 25 202 25 154 C25 101 35 61 57 36 C83 5 112 -8 156 -8 C183 -8 200 -1 216 10 C228 18 239 32 248 45 L248 0 L348 0 Z M242 155 C242 112 218 85 186 85 C150 85 131 111 131 158 C131 179 139 205 152 217 C167 231 183 233 207 233 L242 233 L242 155 Z M243 587 L171 726 L82 726 L169 587 L243 587 Z " />
<glyph glyph-name="aacute" unicode="&#xe1;" horiz-adv-x="399" d="M350 0 L350 372 C350 429 332 468 304 496 C277 524 236 535 192 535 C149 535 106 517 81 492 C48 459 36 420 36 378 L142 378 C142 400 147 415 158 427 C166 436 177 442 193 442 C226 442 244 420 244 381 L244 308 L197 308 C136 308 102 295 76 272 C44 244 27 202 27 154 C27 101 38 61 59 36 C86 5 114 -8 158 -8 C185 -8 202 -1 218 10 C230 18 241 32 250 45 L250 0 L350 0 Z M244 155 C244 112 220 85 188 85 C152 85 133 111 133 158 C133 179 141 205 154 217 C169 231 186 233 209 233 L244 233 L244 155 Z M313 726 L224 726 L152 587 L226 587 L313 726 Z " />
<glyph glyph-name="acircumflex" unicode="&#xe2;" horiz-adv-x="399" d="M350 0 L350 372 C350 429 332 468 304 496 C277 524 236 535 192 535 C149 535 106 517 81 492 C48 459 36 420 36 378 L142 378 C142 400 147 415 158 427 C166 436 177 442 193 442 C226 442 244 420 244 381 L244 308 L197 308 C136 308 102 295 76 272 C44 244 27 202 27 154 C27 101 38 61 59 36 C86 5 114 -8 158 -8 C185 -8 202 -1 218 10 C230 18 241 32 250 45 L250 0 L350 0 Z M335 587 L236 726 L153 726 L54 587 L135 587 L194 669 L254 587 L335 587 Z M244 155 C244 112 220 85 188 85 C152 85 133 111 133 158 C133 179 141 205 154 217 C169 231 186 233 209 233 L244 233 L244 155 Z " />
<glyph glyph-name="atilde" unicode="&#xe3;" horiz-adv-x="399" d="M350 0 L350 372 C350 429 332 468 304 496 C277 524 236 535 192 535 C149 535 106 517 81 492 C48 459 36 420 36 378 L142 378 C142 400 147 415 158 427 C166 436 177 442 193 442 C226 442 244 420 244 381 L244 308 L197 308 C136 308 102 295 76 272 C44 244 27 202 27 154 C27 101 38 61 59 36 C86 5 114 -8 158 -8 C185 -8 202 -1 218 10 C230 18 241 32 250 45 L250 0 L350 0 Z M341 641 L294 688 C274 668 262 665 249 665 C233 665 220 671 205 680 C183 693 166 697 143 697 C112 697 90 685 55 650 L100 604 C120 624 132 627 146 627 C162 627 175 621 190 612 C212 599 229 595 252 595 C283 595 306 606 341 641 L341 641 Z M244 155 C244 112 220 85 188 85 C152 85 133 111 133 158 C133 179 141 205 154 217 C169 231 186 233 209 233 L244 233 L244 155 Z " />
<glyph glyph-name="adieresis" unicode="&#xe4;" horiz-adv-x="399" d="M350 0 L350 372 C350 429 332 468 304 496 C277 524 236 535 192 535 C149 535 106 517 81 492 C48 459 36 420 36 378 L142 378 C142 400 147 415 158 427 C166 436 177 442 193 442 C226 442 244 420 244 381 L244 308 L197 308 C136 308 102 295 76 272 C44 244 27 202 27 154 C27 101 38 61 59 36 C86 5 114 -8 158 -8 C185 -8 202 -1 218 10 C230 18 241 32 250 45 L250 0 L350 0 Z M244 155 C244 112 220 85 188 85 C152 85 133 111 133 158 C133 179 141 205 154 217 C169 231 186 233 209 233 L244 233 L244 155 Z M332 597 L332 697 L232 697 L232 597 L332 597 Z M157 597 L157 697 L57 697 L57 597 L157 597 Z " />
<glyph glyph-name="aring" unicode="&#xe5;" horiz-adv-x="399" d="M350 0 L350 372 C350 429 332 468 304 496 C277 524 236 535 192 535 C149 535 106 517 81 492 C48 459 36 420 36 378 L142 378 C142 400 147 415 158 427 C166 436 177 442 193 442 C226 442 244 420 244 381 L244 308 L197 308 C136 308 102 295 76 272 C44 244 27 202 27 154 C27 101 38 61 59 36 C86 5 114 -8 158 -8 C185 -8 202 -1 218 10 C230 18 241 32 250 45 L250 0 L350 0 Z M299 691 C299 749 252 795 194 795 C136 795 90 749 90 691 C90 633 136 586 194 586 C252 586 299 633 299 691 L299 691 Z M244 155 C244 112 220 85 188 85 C152 85 133 111 133 158 C133 179 141 205 154 217 C169 231 186 233 209 233 L244 233 L244 155 Z M240 691 C240 666 219 645 194 645 C169 645 149 666 149 691 C149 716 169 737 194 737 C219 737 240 716 240 691 L240 691 Z " />
<glyph glyph-name="ae" unicode="&#xe6;" horiz-adv-x="602" d="M567 233 C566 332 570 439 519 493 C488 526 450 535 406 535 C373 535 339 526 315 507 C309 502 304 496 299 490 C294 498 287 505 280 511 C257 528 225 535 192 535 C149 535 106 517 81 492 C48 459 36 420 36 378 L142 378 C142 398 146 414 156 426 C164 436 176 442 193 442 C224 442 244 421 244 382 L244 308 L197 308 C136 308 102 295 76 272 C44 244 27 202 27 154 C27 101 38 61 59 36 C86 5 114 -8 158 -8 C191 -8 215 0 234 14 C250 25 263 42 276 62 C287 44 301 29 317 18 C342 1 371 -8 406 -8 C452 -8 494 4 521 34 C551 67 563 111 565 155 L460 155 C460 139 455 118 447 108 C437 95 424 87 406 87 C387 87 374 96 366 108 C353 127 350 173 350 233 L567 233 Z M244 155 C244 112 220 85 188 85 C152 85 133 111 133 158 C133 179 141 205 154 217 C169 231 186 233 209 233 L244 233 L244 155 Z M461 311 L350 311 C350 365 354 405 366 420 C375 432 387 441 406 441 C425 441 437 432 446 420 C458 405 461 365 461 311 L461 311 Z " />
<glyph glyph-name="ccedilla" unicode="&#xe7;" horiz-adv-x="384" d="M356 155 L251 155 C250 137 248 119 237 105 C229 94 216 87 198 87 C182 87 166 94 157 108 C143 133 142 186 142 264 C142 342 143 395 157 419 C166 433 182 441 198 441 C216 441 229 434 237 422 C248 408 250 389 251 373 L356 373 C353 418 342 466 309 498 C278 527 243 535 198 535 C148 535 104 523 73 480 C40 434 36 353 36 264 C36 174 40 93 73 48 C104 5 148 -8 198 -8 C245 -8 283 4 310 31 C339 60 353 105 356 155 L356 155 Z M243 -40 L175 -40 L114 -194 L190 -194 L243 -40 Z " />
<glyph glyph-name="egrave" unicode="&#xe8;" horiz-adv-x="399" d="M407 233 C406 332 410 439 359 493 C328 526 290 535 246 535 C203 535 165 525 133 493 C88 448 84 360 84 264 C84 168 88 80 133 35 C165 3 198 -8 247 -8 C293 -8 334 4 361 34 C391 67 403 111 405 155 L300 155 C300 139 295 118 287 108 C277 95 265 87 247 87 C228 87 214 96 206 108 C193 127 190 173 190 233 L407 233 Z M301 311 L190 311 C190 365 194 405 206 420 C215 432 227 441 246 441 C265 441 277 432 286 420 C298 405 301 365 301 311 L301 311 Z M268 587 L196 726 L107 726 L194 587 L268 587 Z " />
<glyph glyph-name="eacute" unicode="&#xe9;" horiz-adv-x="394" d="M359 233 C358 332 362 439 311 493 C280 526 242 535 198 535 C155 535 117 525 85 493 C40 448 36 360 36 264 C36 168 40 80 85 35 C117 3 150 -8 199 -8 C245 -8 286 4 313 34 C343 67 355 111 357 155 L252 155 C252 139 247 118 239 108 C229 95 217 87 199 87 C180 87 166 96 158 108 C145 127 142 173 142 233 L359 233 Z M253 311 L142 311 C142 365 146 405 158 420 C167 432 179 441 198 441 C217 441 229 432 238 420 C250 405 253 365 253 311 L253 311 Z M315 726 L226 726 L154 587 L228 587 L315 726 Z " />
<glyph glyph-name="ecircumflex" unicode="&#xea;" horiz-adv-x="394" d="M359 233 C358 332 362 439 311 493 C280 526 242 535 198 535 C155 535 117 525 85 493 C40 448 36 360 36 264 C36 168 40 80 85 35 C117 3 150 -8 199 -8 C245 -8 286 4 313 34 C343 67 355 111 357 155 L252 155 C252 139 247 118 239 108 C229 95 217 87 199 87 C180 87 166 96 158 108 C145 127 142 173 142 233 L359 233 Z M340 587 L241 726 L158 726 L59 587 L140 587 L199 669 L259 587 L340 587 Z M253 311 L142 311 C142 365 146 405 158 420 C167 432 179 441 198 441 C217 441 229 432 238 420 C250 405 253 365 253 311 L253 311 Z " />
<glyph glyph-name="edieresis" unicode="&#xeb;" horiz-adv-x="394" d="M359 233 C358 332 362 439 311 493 C280 526 242 535 198 535 C155 535 117 525 85 493 C40 448 36 360 36 264 C36 168 40 80 85 35 C117 3 150 -8 199 -8 C245 -8 286 4 313 34 C343 67 355 111 357 155 L252 155 C252 139 247 118 239 108 C229 95 217 87 199 87 C180 87 166 96 158 108 C145 127 142 173 142 233 L359 233 Z M253 311 L142 311 C142 365 146 405 158 420 C167 432 179 441 198 441 C217 441 229 432 238 420 C250 405 253 365 253 311 L253 311 Z M337 597 L337 697 L237 697 L237 597 L337 597 Z M162 597 L162 697 L62 697 L62 597 L162 597 Z " />
<glyph glyph-name="igrave" unicode="&#xec;" horiz-adv-x="210" d="M159 0 L159 527 L53 527 L53 0 L159 0 Z M154 587 L82 726 L-7 726 L80 587 L154 587 Z " />
<glyph glyph-name="iacute" unicode="&#xed;" horiz-adv-x="210" d="M159 0 L159 527 L53 527 L53 0 L159 0 Z M223 726 L133 726 L61 587 L135 587 L223 726 Z " />
<glyph glyph-name="icircumflex" unicode="&#xee;" horiz-adv-x="210" d="M159 0 L159 527 L53 527 L53 0 L159 0 Z M246 587 L147 726 L64 726 L-35 587 L46 587 L106 669 L165 587 L246 587 Z " />
<glyph glyph-name="idieresis" unicode="&#xef;" horiz-adv-x="210" d="M159 0 L159 527 L53 527 L53 0 L159 0 Z M243 597 L243 697 L143 697 L143 597 L243 597 Z M68 597 L68 697 L-32 697 L-32 597 L68 597 Z " />
<glyph glyph-name="eth" unicode="&#xf0;" horiz-adv-x="400" d="M362 243 C362 352 353 408 335 468 L304 569 L351 569 L351 647 L281 647 L259 712 L152 712 L175 647 L124 647 L124 569 L199 569 L229 477 C213 488 188 494 169 494 C128 494 99 483 75 456 C40 417 37 349 37 243 C37 159 43 86 76 44 C106 5 148 -8 199 -8 C250 -8 293 5 323 44 C356 86 362 159 362 243 L362 243 Z M256 245 C256 174 254 129 240 107 C232 94 215 87 199 87 C183 87 167 94 159 107 C145 129 143 174 143 245 C143 316 145 362 159 384 C167 397 183 404 199 404 C215 404 232 397 240 384 C254 362 256 316 256 245 L256 245 Z " />
<glyph glyph-name="ntilde" unicode="&#xf1;" horiz-adv-x="417" d="M368 0 L368 380 C368 441 359 470 338 494 C314 522 285 535 242 535 C223 535 204 530 189 521 C176 514 163 500 154 488 L154 527 L52 527 L52 0 L158 0 L158 379 C158 420 181 440 210 440 C239 440 262 420 262 379 L262 0 L368 0 Z M358 641 L311 688 C291 668 279 665 266 665 C250 665 237 671 222 680 C200 693 183 697 160 697 C129 697 107 685 72 650 L117 604 C137 624 149 627 163 627 C179 627 192 621 207 612 C229 599 246 595 269 595 C300 595 323 606 358 641 L358 641 Z " />
<glyph glyph-name="ograve" unicode="&#xf2;" horiz-adv-x="399" d="M408 264 C408 353 404 434 371 480 C340 523 297 535 246 535 C195 535 152 523 121 480 C88 434 84 353 84 264 C84 175 88 94 121 48 C152 5 195 -8 246 -8 C297 -8 340 5 371 48 C404 94 408 175 408 264 L408 264 Z M302 264 C302 186 301 132 287 108 C278 94 262 87 246 87 C230 87 214 94 205 108 C191 132 190 186 190 264 C190 342 191 395 205 419 C214 433 230 441 246 441 C262 441 278 433 287 419 C301 395 302 342 302 264 L302 264 Z M269 587 L197 726 L108 726 L195 587 L269 587 Z " />
<glyph glyph-name="oacute" unicode="&#xf3;" horiz-adv-x="396" d="M360 264 C360 353 356 434 323 480 C292 523 249 535 198 535 C147 535 104 523 73 480 C40 434 36 353 36 264 C36 175 40 94 73 48 C104 5 147 -8 198 -8 C249 -8 292 5 323 48 C356 94 360 175 360 264 L360 264 Z M254 264 C254 186 253 132 239 108 C230 94 214 87 198 87 C182 87 166 94 157 108 C143 132 142 186 142 264 C142 342 143 395 157 419 C166 433 182 441 198 441 C214 441 230 433 239 419 C253 395 254 342 254 264 L254 264 Z M315 726 L226 726 L154 587 L228 587 L315 726 Z " />
<glyph glyph-name="ocircumflex" unicode="&#xf4;" horiz-adv-x="396" d="M360 264 C360 353 356 434 323 480 C292 523 249 535 198 535 C147 535 104 523 73 480 C40 434 36 353 36 264 C36 175 40 94 73 48 C104 5 147 -8 198 -8 C249 -8 292 5 323 48 C356 94 360 175 360 264 L360 264 Z M254 264 C254 186 253 132 239 108 C230 94 214 87 198 87 C182 87 166 94 157 108 C143 132 142 186 142 264 C142 342 143 395 157 419 C166 433 182 441 198 441 C214 441 230 433 239 419 C253 395 254 342 254 264 L254 264 Z M340 587 L241 726 L158 726 L59 587 L140 587 L199 669 L259 587 L340 587 Z " />
<glyph glyph-name="otilde" unicode="&#xf5;" horiz-adv-x="396" d="M360 264 C360 353 356 434 323 480 C292 523 249 535 198 535 C147 535 104 523 73 480 C40 434 36 353 36 264 C36 175 40 94 73 48 C104 5 147 -8 198 -8 C249 -8 292 5 323 48 C356 94 360 175 360 264 L360 264 Z M254 264 C254 186 253 132 239 108 C230 94 214 87 198 87 C182 87 166 94 157 108 C143 132 142 186 142 264 C142 342 143 395 157 419 C166 433 182 441 198 441 C214 441 230 433 239 419 C253 395 254 342 254 264 L254 264 Z M345 641 L298 688 C278 668 266 665 253 665 C237 665 224 671 209 680 C187 693 170 697 147 697 C116 697 94 685 59 650 L104 604 C124 624 136 627 150 627 C166 627 179 621 194 612 C216 599 233 595 256 595 C287 595 310 606 345 641 L345 641 Z " />
<glyph glyph-name="odieresis" unicode="&#xf6;" horiz-adv-x="396" d="M360 264 C360 353 356 434 323 480 C292 523 249 535 198 535 C147 535 104 523 73 480 C40 434 36 353 36 264 C36 175 40 94 73 48 C104 5 147 -8 198 -8 C249 -8 292 5 323 48 C356 94 360 175 360 264 L360 264 Z M254 264 C254 186 253 132 239 108 C230 94 214 87 198 87 C182 87 166 94 157 108 C143 132 142 186 142 264 C142 342 143 395 157 419 C166 433 182 441 198 441 C214 441 230 433 239 419 C253 395 254 342 254 264 L254 264 Z M337 597 L337 697 L237 697 L237 597 L337 597 Z M162 597 L162 697 L62 697 L62 597 L162 597 Z " />
<glyph glyph-name="divide" unicode="&#xf7;" horiz-adv-x="457" d="M413 229 L413 330 L44 330 L44 229 L413 229 Z M291 403 L291 526 L167 526 L167 403 L291 403 Z M291 32 L291 155 L167 155 L167 32 L291 32 Z " />
<glyph glyph-name="oslash" unicode="&#xf8;" horiz-adv-x="394" d="M367 571 L296 571 L275 520 C253 531 227 535 198 535 C147 535 104 523 73 480 C40 434 36 353 36 264 C36 179 39 98 70 52 L29 -44 L100 -44 L121 7 C143 -4 169 -8 198 -8 C249 -8 292 5 323 48 C356 94 360 175 360 264 C360 349 357 430 326 476 L367 571 Z M235 429 L144 204 C142 214 141 241 141 264 C141 344 142 398 157 423 C166 438 182 445 198 445 C212 445 226 439 235 429 L235 429 Z M255 264 C255 184 254 130 239 105 C230 90 214 82 198 82 C184 82 170 88 161 98 L252 323 C255 313 255 287 255 264 L255 264 Z " />
<glyph glyph-name="ugrave" unicode="&#xf9;" horiz-adv-x="417" d="M365 0 L365 527 L259 527 L259 148 C259 107 236 87 207 87 C178 87 155 107 155 148 L155 527 L49 527 L49 147 C49 86 58 57 79 33 C103 5 132 -8 175 -8 C194 -8 213 -2 228 7 C241 14 255 28 264 40 L264 0 L365 0 Z M249 587 L177 726 L88 726 L175 587 L249 587 Z " />
<glyph glyph-name="uacute" unicode="&#xfa;" horiz-adv-x="417" d="M365 0 L365 527 L259 527 L259 148 C259 107 236 87 207 87 C178 87 155 107 155 148 L155 527 L49 527 L49 147 C49 86 58 57 79 33 C103 5 132 -8 175 -8 C194 -8 213 -2 228 7 C241 14 255 28 264 40 L264 0 L365 0 Z M335 726 L246 726 L174 587 L248 587 L335 726 Z " />
<glyph glyph-name="ucircumflex" unicode="&#xfb;" horiz-adv-x="417" d="M365 0 L365 527 L259 527 L259 148 C259 107 236 87 207 87 C178 87 155 107 155 148 L155 527 L49 527 L49 147 C49 86 58 57 79 33 C103 5 132 -8 175 -8 C194 -8 213 -2 228 7 C241 14 255 28 264 40 L264 0 L365 0 Z M350 587 L251 726 L168 726 L69 587 L150 587 L209 669 L269 587 L350 587 Z " />
<glyph glyph-name="udieresis" unicode="&#xfc;" horiz-adv-x="417" d="M365 0 L365 527 L259 527 L259 148 C259 107 236 87 207 87 C178 87 155 107 155 148 L155 527 L49 527 L49 147 C49 86 58 57 79 33 C103 5 132 -8 175 -8 C194 -8 213 -2 228 7 C241 14 255 28 264 40 L264 0 L365 0 Z M171 597 L171 697 L71 697 L71 597 L171 597 Z M346 597 L346 697 L246 697 L246 597 L346 597 Z " />
<glyph glyph-name="yacute" unicode="&#xfd;" horiz-adv-x="382" d="M377 527 L260 527 L191 168 L121 527 L4 527 L135 1 L126 -36 C113 -86 78 -90 32 -91 L32 -185 C128 -185 203 -173 229 -67 L377 527 Z M308 726 L219 726 L147 587 L221 587 L308 726 Z " />
<glyph glyph-name="thorn" unicode="&#xfe;" horiz-adv-x="411" d="M374 264 C374 378 371 451 336 494 C312 524 283 535 244 535 C225 535 205 530 190 521 C179 515 161 498 155 488 L155 712 L53 712 L53 -185 L159 -185 L159 34 C167 23 179 12 190 6 C205 -3 225 -8 244 -8 C285 -8 312 4 336 33 C371 76 374 150 374 264 L374 264 Z M268 264 C268 186 266 132 252 108 C243 94 228 87 212 87 C199 87 185 91 176 100 C165 111 159 127 159 150 L159 377 C159 400 165 416 176 427 C185 436 199 441 212 441 C228 441 243 433 252 419 C266 395 268 342 268 264 L268 264 Z " />
<glyph glyph-name="ydieresis" unicode="&#xff;" horiz-adv-x="382" d="M377 527 L260 527 L191 168 L121 527 L4 527 L135 1 L126 -36 C113 -86 78 -90 32 -91 L32 -185 C128 -185 203 -173 229 -67 L377 527 Z M155 597 L155 697 L55 697 L55 597 L155 597 Z M330 597 L330 697 L230 697 L230 597 L330 597 Z " />
<glyph glyph-name="dotlessi" unicode="&#x131;" horiz-adv-x="210" d="M159 0 L159 527 L53 527 L53 0 L159 0 Z " />
<glyph glyph-name="Lslash" unicode="&#x141;" horiz-adv-x="395" d="M372 0 L372 101 L185 101 L185 346 L278 425 L278 530 L185 452 L185 712 L73 712 L73 362 L26 323 L26 217 L73 257 L73 0 L372 0 Z " />
<glyph glyph-name="lslash" unicode="&#x142;" horiz-adv-x="272" d="M252 0 L252 95 C203 95 180 119 180 166 L180 384 L233 431 L233 530 L180 483 L180 712 L74 712 L74 397 L22 351 L22 251 L74 298 L74 160 C74 97 95 57 128 32 C163 5 203 0 252 0 L252 0 Z " />
<glyph glyph-name="OE" unicode="&#x152;" horiz-adv-x="642" d="M604 0 L604 101 L417 101 L417 308 L578 308 L578 409 L417 409 L417 611 L604 611 L604 712 L316 712 L316 685 C297 705 262 720 226 720 C165 720 122 696 93 660 C46 603 41 496 41 356 C41 216 48 110 93 52 C121 16 165 -8 226 -8 C262 -8 295 6 316 27 L316 0 L604 0 Z M309 356 C309 226 306 154 285 120 C275 104 258 93 231 93 C204 93 188 104 178 120 C157 154 153 226 153 356 C153 486 157 558 178 592 C188 608 204 619 231 619 C258 619 275 608 285 592 C306 558 309 486 309 356 L309 356 Z " />
<glyph glyph-name="oe" unicode="&#x153;" horiz-adv-x="613" d="M578 233 C577 332 580 439 529 493 C498 526 460 535 416 535 C383 535 351 524 327 505 C320 500 313 493 308 486 C304 493 299 499 293 504 C269 524 234 535 198 535 C147 535 104 523 73 480 C40 434 36 353 36 264 C36 175 40 94 73 48 C104 5 147 -8 198 -8 C234 -8 268 4 291 22 C298 28 304 34 309 42 C314 35 319 28 326 23 C349 4 380 -8 417 -8 C463 -8 504 4 531 34 C561 67 573 111 575 155 L470 155 C470 139 465 118 457 108 C447 95 435 87 417 87 C398 87 384 96 376 108 C363 127 360 173 360 233 L578 233 Z M254 264 C254 186 253 132 239 108 C230 94 214 87 198 87 C182 87 166 94 157 108 C143 132 142 186 142 264 C142 342 143 395 157 419 C166 433 182 441 198 441 C214 441 230 433 239 419 C253 395 254 342 254 264 L254 264 Z M472 311 L360 311 C360 365 364 405 376 420 C385 432 397 441 416 441 C435 441 447 432 456 420 C468 405 472 365 472 311 L472 311 Z " />
<glyph glyph-name="Scaron" unicode="&#x160;" horiz-adv-x="442" d="M404 197 C404 317 381 362 296 397 L212 431 C162 451 153 469 153 527 C153 558 159 582 172 597 C183 609 197 617 220 617 C244 617 260 609 270 596 C285 577 287 552 287 520 L399 520 C399 588 386 639 349 675 C320 703 278 718 221 718 C170 718 130 702 99 675 C60 640 41 588 41 524 C41 414 68 375 140 345 L225 310 C280 288 292 269 292 193 C292 155 288 131 273 114 C262 101 245 94 219 94 C194 94 177 102 167 113 C151 131 147 155 147 193 L35 193 C35 118 47 74 81 40 C111 10 157 -7 219 -7 C282 -7 329 12 358 40 C394 75 404 124 404 197 L404 197 Z M363 897 L282 897 L222 815 L163 897 L82 897 L180 757 L264 757 L363 897 Z " />
<glyph glyph-name="scaron" unicode="&#x161;" horiz-adv-x="381" d="M352 152 C352 188 344 218 330 238 C313 263 289 280 253 296 L183 326 C165 334 151 345 144 356 C138 365 136 374 136 387 C136 403 141 417 151 427 C160 436 174 442 190 442 C204 442 217 437 227 426 C237 415 242 401 242 378 L346 378 C346 431 329 468 301 495 C274 521 234 535 190 535 C146 535 105 520 76 491 C48 462 30 429 30 378 C30 349 35 325 47 306 C62 282 88 261 124 245 L194 214 C213 206 227 196 235 184 C243 172 246 160 246 145 C246 128 241 112 231 103 C219 92 207 88 190 88 C176 88 160 93 150 104 C138 116 132 133 132 154 L27 154 C27 104 43 67 74 35 C101 7 145 -8 190 -8 C235 -8 273 3 305 35 C332 62 352 100 352 152 L352 152 Z M334 724 L253 724 L193 642 L134 724 L53 724 L151 584 L235 584 L334 724 Z " />
<glyph glyph-name="Ydieresis" unicode="&#x178;" horiz-adv-x="389" d="M388 712 L265 712 L194 430 L124 712 L0 712 L138 279 L138 0 L250 0 L250 279 L388 712 Z M157 770 L157 870 L57 870 L57 770 L157 770 Z M332 770 L332 870 L232 870 L232 770 L332 770 Z " />
<glyph glyph-name="Zcaron" unicode="&#x17d;" horiz-adv-x="373" d="M341 0 L341 101 L148 101 L341 628 L341 712 L43 712 L43 611 L225 611 L31 84 L31 0 L341 0 Z M331 897 L250 897 L190 815 L131 897 L50 897 L148 757 L232 757 L331 897 Z " />
<glyph glyph-name="zcaron" unicode="&#x17e;" horiz-adv-x="325" d="M300 0 L300 95 L146 95 L300 448 L300 527 L39 527 L39 433 L181 433 L27 80 L27 0 L300 0 Z M311 724 L230 724 L170 642 L111 724 L30 724 L128 584 L212 584 L311 724 Z " />
<glyph glyph-name="florin" unicode="&#x192;" horiz-adv-x="365" d="M342 624 L342 719 L298 719 C225 719 154 677 137 580 L104 388 L37 388 L37 308 L89 308 L0 -185 L105 -185 L194 308 L284 308 L284 388 L209 388 L242 574 C247 604 271 624 301 624 L342 624 Z " />
<glyph glyph-name="circumflex" unicode="&#x2c6;" horiz-adv-x="399" d="M340 587 L241 726 L158 726 L59 587 L140 587 L199 669 L259 587 L340 587 Z " />
<glyph glyph-name="caron" unicode="&#x2c7;" horiz-adv-x="399" d="M340 724 L259 724 L199 642 L140 724 L59 724 L157 584 L241 584 L340 724 Z " />
<glyph glyph-name="breve" unicode="&#x2d8;" horiz-adv-x="399" d="M324 696 L253 696 C250 662 226 650 199 650 C172 650 149 662 146 696 L75 696 C79 609 135 577 199 577 C263 577 320 609 324 696 L324 696 Z " />
<glyph glyph-name="dotaccent" unicode="&#x2d9;" horiz-adv-x="399" d="M249 606 L249 706 L150 706 L150 606 L249 606 Z " />
<glyph glyph-name="ring" unicode="&#x2da;" horiz-adv-x="399" d="M304 691 C304 749 257 795 199 795 C141 795 95 749 95 691 C95 633 141 586 199 586 C257 586 304 633 304 691 L304 691 Z M245 691 C245 666 224 645 199 645 C174 645 154 666 154 691 C154 716 174 737 199 737 C224 737 245 716 245 691 L245 691 Z " />
<glyph glyph-name="ogonek" unicode="&#x2db;" horiz-adv-x="399" d="M286 -194 L225 -40 L157 -40 L210 -194 L286 -194 Z " />
<glyph glyph-name="tilde" unicode="&#x2dc;" horiz-adv-x="399" d="M346 641 L299 688 C279 668 267 665 254 665 C238 665 225 671 210 680 C188 693 171 697 148 697 C117 697 95 685 60 650 L105 604 C125 624 137 627 151 627 C167 627 180 621 195 612 C217 599 234 595 257 595 C288 595 311 606 346 641 L346 641 Z " />
<glyph glyph-name="hungarumlaut" unicode="&#x2dd;" horiz-adv-x="399" d="M208 725 L118 725 L71 584 L141 584 L208 725 Z M377 725 L287 725 L241 584 L310 584 L377 725 Z " />
<glyph glyph-name="endash" unicode="&#x2013;" horiz-adv-x="457" d="M413 238 L413 339 L44 339 L44 238 L413 238 Z " />
<glyph glyph-name="emdash" unicode="&#x2014;" horiz-adv-x="711" d="M665 238 L665 339 L47 339 L47 238 L665 238 Z " />
<glyph glyph-name="quoteleft" unicode="&#x2018;" horiz-adv-x="229" d="M172 594 L172 797 L57 712 L57 594 L172 594 Z " />
<glyph glyph-name="quoteright" unicode="&#x2019;" horiz-adv-x="229" d="M172 594 L172 712 L57 712 L57 508 L172 594 Z " />
<glyph glyph-name="quotesinglbase" unicode="&#x201a;" horiz-adv-x="229" d="M172 0 L172 118 L57 118 L57 -85 L172 0 Z " />
<glyph glyph-name="quotedblleft" unicode="&#x201c;" horiz-adv-x="418" d="M361 594 L361 797 L245 712 L245 594 L361 594 Z M172 594 L172 797 L57 712 L57 594 L172 594 Z " />
<glyph glyph-name="quotedblright" unicode="&#x201d;" horiz-adv-x="418" d="M361 594 L361 712 L245 712 L245 508 L361 594 Z M172 594 L172 712 L57 712 L57 508 L172 594 Z " />
<glyph glyph-name="quotedblbase" unicode="&#x201e;" horiz-adv-x="418" d="M361 0 L361 118 L245 118 L245 -85 L361 0 Z M172 0 L172 118 L57 118 L57 -85 L172 0 Z " />
<glyph glyph-name="dagger" unicode="&#x2020;" horiz-adv-x="449" d="M405 439 L405 527 L274 527 L274 712 L175 712 L175 527 L44 527 L44 439 L175 439 L175 0 L274 0 L274 439 L405 439 Z " />
<glyph glyph-name="daggerdbl" unicode="&#x2021;" horiz-adv-x="449" d="M405 0 L405 89 L274 89 L274 439 L405 439 L405 527 L274 527 L274 712 L175 712 L175 527 L44 527 L44 439 L175 439 L175 89 L44 89 L44 0 L175 0 L175 -185 L274 -185 L274 0 L405 0 Z " />
<glyph glyph-name="bullet" unicode="&#x2022;" horiz-adv-x="446" d="M386 334 C386 424 313 497 223 497 C133 497 60 424 60 334 C60 244 133 171 223 171 C313 171 386 244 386 334 L386 334 Z " />
<glyph glyph-name="ellipsis" unicode="&#x2026;" horiz-adv-x="654" d="M599 0 L599 123 L476 123 L476 0 L599 0 Z M179 0 L179 123 L56 123 L56 0 L179 0 Z M389 0 L389 123 L266 123 L266 0 L389 0 Z " />
<glyph glyph-name="perthousand" unicode="&#x2030;" horiz-adv-x="1050" d="M685 112 L685 245 C685 324 626 365 558 365 C490 365 431 324 431 245 L431 112 C431 33 490 -8 558 -8 C626 -8 685 33 685 112 L685 112 Z M301 467 L301 600 C301 679 242 720 174 720 C106 720 47 679 47 600 L47 467 C47 388 106 347 174 347 C242 347 301 388 301 467 L301 467 Z M1003 112 L1003 245 C1003 324 945 365 877 365 C809 365 750 324 750 245 L750 112 C750 33 809 -8 877 -8 C945 -8 1003 33 1003 112 L1003 112 Z M532 712 L450 712 L202 0 L284 0 L532 712 Z M214 469 C214 438 198 424 174 424 C150 424 133 438 133 469 L133 598 C133 629 150 643 174 643 C198 643 214 629 214 598 L214 469 Z M917 114 C917 83 901 69 877 69 C853 69 836 83 836 114 L836 243 C836 274 853 288 877 288 C901 288 917 274 917 243 L917 114 Z M598 114 C598 83 582 69 558 69 C534 69 518 83 518 114 L518 243 C518 274 534 288 558 288 C582 288 598 274 598 243 L598 114 Z " />
<glyph glyph-name="guilsinglleft" unicode="&#x2039;" horiz-adv-x="231" d="M185 27 L185 184 L124 276 L185 366 L185 524 L24 276 L185 27 Z " />
<glyph glyph-name="guilsinglright" unicode="&#x203a;" horiz-adv-x="231" d="M207 276 L47 524 L47 366 L107 276 L47 184 L47 27 L207 276 Z " />
<glyph glyph-name="fraction" unicode="&#x2044;" horiz-adv-x="125" d="M226 712 L144 712 L-102 0 L-20 0 L226 712 Z " />
<glyph glyph-name="Euro" unicode="&#x20ac;" horiz-adv-x="498" d="M459 189 L347 189 C346 142 335 93 277 93 C250 93 233 105 223 120 C208 142 204 168 203 235 L309 235 L309 316 L200 316 L200 396 L309 396 L309 477 L203 477 C204 544 208 570 222 592 C232 608 250 619 277 619 C335 619 346 571 347 524 L459 524 C457 587 437 641 402 674 C370 704 331 720 277 720 C209 720 170 694 140 660 C107 622 92 566 90 477 L32 477 L32 396 L88 396 L88 316 L32 316 L32 235 L90 235 C92 146 106 90 140 52 C170 18 209 -8 277 -8 C330 -8 368 8 400 37 C436 70 457 125 459 189 L459 189 Z " />
<glyph glyph-name="trademark" unicode="&#x2122;" horiz-adv-x="631" d="M581 275 L581 712 L518 712 L435 487 L353 712 L290 712 L290 275 L360 275 L360 535 L415 367 L455 367 L511 538 L511 275 L581 275 Z M240 647 L240 712 L25 712 L25 647 L97 647 L97 275 L167 275 L167 647 L240 647 Z " />
<glyph glyph-name="minus" unicode="&#x2212;" horiz-adv-x="295" d="M249 238 L249 339 L47 339 L47 238 L249 238 Z " />
<glyph glyph-name="fi" unicode="&#xfb01;" horiz-adv-x="463" d="M252 446 L252 527 L179 527 L179 554 C179 605 202 625 252 625 L252 720 C203 720 161 714 126 687 C93 661 73 622 73 560 L73 527 L19 527 L19 446 L73 446 L73 0 L179 0 L179 446 L252 446 Z M411 0 L411 527 L305 527 L305 0 L411 0 Z M417 594 L417 711 L300 711 L300 594 L417 594 Z " />
<glyph glyph-name="fl" unicode="&#xfb02;" horiz-adv-x="501" d="M252 446 L252 527 L179 527 L179 554 C179 602 203 625 252 625 L252 720 C203 720 161 714 126 687 C93 661 73 622 73 560 L73 527 L19 527 L19 446 L73 446 L73 0 L179 0 L179 446 L252 446 Z M483 0 L483 95 C434 95 411 119 411 166 L411 712 L305 712 L305 160 C305 97 326 57 359 32 C394 5 434 0 483 0 L483 0 Z " />
</font>
</svg>
